<svg width="31" height="476" viewBox="0 0 31 476" fill="none" xmlns="http://www.w3.org/2000/svg">
<path d="M10.7812 470.75H24V475.25H7.09375V471.016L10.7812 470.75ZM6.98438 465.656L11.1562 465.734C11.125 465.953 11.099 466.219 11.0781 466.531C11.0469 466.833 11.0312 467.109 11.0312 467.359C11.0312 467.995 11.1146 468.547 11.2812 469.016C11.4375 469.474 11.6719 469.859 11.9844 470.172C12.2969 470.474 12.6771 470.703 13.125 470.859C13.5729 471.005 14.0833 471.089 14.6562 471.109L14.375 472.016C13.2812 472.016 12.276 471.906 11.3594 471.688C10.4323 471.469 9.625 471.151 8.9375 470.734C8.25 470.307 7.71875 469.786 7.34375 469.172C6.96875 468.557 6.78125 467.854 6.78125 467.062C6.78125 466.812 6.80208 466.557 6.84375 466.297C6.875 466.036 6.92188 465.823 6.98438 465.656ZM24.3125 452.863C24.3125 454.175 24.1042 455.352 23.6875 456.394C23.2604 457.435 22.6719 458.321 21.9219 459.05C21.1719 459.769 20.3021 460.321 19.3125 460.706C18.3125 461.092 17.25 461.284 16.125 461.284H15.5C14.2188 461.284 13.0469 461.102 11.9844 460.738C10.9219 460.373 10 459.852 9.21875 459.175C8.4375 458.488 7.83854 457.654 7.42188 456.675C6.99479 455.696 6.78125 454.592 6.78125 453.363C6.78125 452.165 6.97917 451.102 7.375 450.175C7.77083 449.248 8.33333 448.472 9.0625 447.847C9.79167 447.211 10.6667 446.732 11.6875 446.409C12.6979 446.086 13.8229 445.925 15.0625 445.925H16.9375L16.9375 459.363H13.9375V450.347H13.5938C12.9688 450.347 12.4115 450.461 11.9219 450.691C11.4219 450.909 11.026 451.243 10.7344 451.691C10.4427 452.139 10.2969 452.711 10.2969 453.409C10.2969 454.003 10.4271 454.514 10.6875 454.941C10.9479 455.368 11.3125 455.717 11.7812 455.988C12.25 456.248 12.8021 456.446 13.4375 456.581C14.0625 456.706 14.75 456.769 15.5 456.769H16.125C16.8021 456.769 17.4271 456.675 18 456.488C18.5729 456.29 19.0677 456.014 19.4844 455.659C19.901 455.295 20.224 454.857 20.4531 454.347C20.6823 453.826 20.7969 453.238 20.7969 452.581C20.7969 451.769 20.6406 451.014 20.3281 450.316C20.0052 449.607 19.5208 448.998 18.875 448.488L21.25 446.3C21.7604 446.654 22.25 447.139 22.7188 447.753C23.1875 448.357 23.5729 449.086 23.875 449.941C24.1667 450.795 24.3125 451.769 24.3125 452.863ZM19.3281 431.022C19.0052 431.022 18.7135 431.116 18.4531 431.303C18.1927 431.491 17.9531 431.84 17.7344 432.35C17.5052 432.85 17.2969 433.574 17.1094 434.522C16.9219 435.376 16.6875 436.173 16.4063 436.912C16.1146 437.642 15.7656 438.277 15.3594 438.819C14.9531 439.35 14.474 439.767 13.9219 440.069C13.3594 440.371 12.7188 440.522 12 440.522C11.2917 440.522 10.625 440.371 10 440.069C9.375 439.756 8.82292 439.314 8.34375 438.741C7.85417 438.157 7.47396 437.449 7.20313 436.616C6.92188 435.772 6.78125 434.824 6.78125 433.772C6.78125 432.303 7.01563 431.043 7.48438 429.991C7.95313 428.928 8.59896 428.116 9.42188 427.553C10.2344 426.98 11.1615 426.694 12.2031 426.694V431.194C11.7656 431.194 11.375 431.287 11.0313 431.475C10.6771 431.652 10.401 431.933 10.2031 432.319C9.99479 432.694 9.89063 433.183 9.89063 433.787C9.89063 434.287 9.97917 434.72 10.1563 435.084C10.3229 435.449 10.5521 435.73 10.8438 435.928C11.125 436.116 11.4375 436.209 11.7813 436.209C12.0417 436.209 12.276 436.157 12.4844 436.053C12.6823 435.939 12.8646 435.756 13.0313 435.506C13.1979 435.256 13.3542 434.933 13.5 434.537C13.6354 434.131 13.7604 433.631 13.875 433.037C14.125 431.819 14.4531 430.73 14.8594 429.772C15.2552 428.814 15.7969 428.053 16.4844 427.491C17.1615 426.928 18.0521 426.647 19.1563 426.647C19.9063 426.647 20.5938 426.814 21.2188 427.147C21.8438 427.48 22.3906 427.959 22.8594 428.584C23.3177 429.209 23.6771 429.959 23.9375 430.834C24.1875 431.699 24.3125 432.673 24.3125 433.756C24.3125 435.329 24.0313 436.662 23.4688 437.756C22.9063 438.84 22.1927 439.662 21.3281 440.225C20.4531 440.777 19.5573 441.053 18.6406 441.053V436.787C19.2552 436.767 19.75 436.61 20.125 436.319C20.5 436.017 20.7708 435.636 20.9375 435.178C21.1042 434.709 21.1875 434.204 21.1875 433.662C21.1875 433.079 21.1094 432.595 20.9531 432.209C20.7865 431.824 20.5677 431.532 20.2969 431.334C20.0156 431.126 19.6927 431.022 19.3281 431.022ZM10.3438 416.025H30.5L30.5 420.525H7.09375V416.353L10.3438 416.025ZM15.3594 405.322H15.6875C16.9167 405.322 18.0573 405.468 19.1094 405.759C20.1615 406.041 21.0781 406.457 21.8594 407.009C22.6302 407.561 23.2344 408.249 23.6719 409.072C24.099 409.884 24.3125 410.822 24.3125 411.884C24.3125 412.916 24.1042 413.811 23.6875 414.572C23.2708 415.332 22.6875 415.973 21.9375 416.494C21.1771 417.004 20.2969 417.416 19.2969 417.728C18.2969 418.041 17.224 418.28 16.0781 418.447H15.2188C13.9896 418.28 12.8646 418.041 11.8438 417.728C10.8125 417.416 9.92188 417.004 9.17188 416.494C8.41146 415.973 7.82292 415.338 7.40625 414.588C6.98958 413.827 6.78125 412.936 6.78125 411.916C6.78125 410.843 6.98438 409.9 7.39063 409.088C7.79688 408.265 8.38021 407.577 9.14063 407.025C9.90104 406.463 10.8073 406.041 11.8594 405.759C12.9115 405.468 14.0781 405.322 15.3594 405.322ZM15.6875 409.838H15.3594C14.6406 409.838 13.9792 409.9 13.375 410.025C12.7604 410.14 12.224 410.327 11.7656 410.588C11.3073 410.838 10.9531 411.171 10.7031 411.588C10.4427 411.994 10.3125 412.489 10.3125 413.072C10.3125 413.686 10.4115 414.213 10.6094 414.65C10.8073 415.077 11.0938 415.426 11.4688 415.697C11.8438 415.968 12.2917 416.171 12.8125 416.306C13.3333 416.442 13.9219 416.525 14.5781 416.556H16.75C17.5208 416.504 18.2135 416.358 18.8281 416.119C19.4323 415.879 19.9115 415.509 20.2656 415.009C20.6198 414.509 20.7969 413.853 20.7969 413.041C20.7969 412.447 20.6667 411.947 20.4063 411.541C20.1354 411.134 19.7656 410.806 19.2969 410.556C18.8281 410.296 18.2865 410.114 17.6719 410.009C17.0573 409.895 16.3958 409.838 15.6875 409.838ZM15.7188 400.044H15.3906C14.151 400.044 13.0104 399.867 11.9688 399.512C10.9167 399.158 10.0052 398.643 9.23438 397.966C8.46354 397.289 7.86458 396.455 7.4375 395.466C7 394.476 6.78125 393.341 6.78125 392.059C6.78125 390.778 7 389.637 7.4375 388.637C7.86458 387.637 8.46354 386.799 9.23438 386.122C10.0052 385.434 10.9167 384.914 11.9688 384.559C13.0104 384.205 14.151 384.028 15.3906 384.028H15.7188C16.9479 384.028 18.0885 384.205 19.1406 384.559C20.1823 384.914 21.0938 385.434 21.875 386.122C22.6458 386.799 23.2448 387.632 23.6719 388.622C24.099 389.611 24.3125 390.747 24.3125 392.028C24.3125 393.309 24.099 394.45 23.6719 395.45C23.2448 396.44 22.6458 397.278 21.875 397.966C21.0938 398.643 20.1823 399.158 19.1406 399.512C18.0885 399.867 16.9479 400.044 15.7188 400.044ZM15.3906 395.544H15.7188C16.4271 395.544 17.0885 395.481 17.7031 395.356C18.3177 395.231 18.8594 395.033 19.3281 394.762C19.7865 394.481 20.1458 394.117 20.4063 393.669C20.6667 393.221 20.7969 392.674 20.7969 392.028C20.7969 391.403 20.6667 390.867 20.4063 390.419C20.1458 389.971 19.7865 389.611 19.3281 389.341C18.8594 389.07 18.3177 388.872 17.7031 388.747C17.0885 388.611 16.4271 388.544 15.7188 388.544H15.3906C14.7031 388.544 14.0573 388.611 13.4531 388.747C12.8385 388.872 12.2969 389.075 11.8281 389.356C11.349 389.627 10.974 389.986 10.7031 390.434C10.4323 390.882 10.2969 391.424 10.2969 392.059C10.2969 392.695 10.4323 393.236 10.7031 393.684C10.974 394.122 11.349 394.481 11.8281 394.762C12.2969 395.033 12.8385 395.231 13.4531 395.356C14.0573 395.481 14.7031 395.544 15.3906 395.544ZM10.7031 373.656H24V378.156H7.09375L7.09375 373.938L10.7031 373.656ZM14.9531 374.312V375.531C13.7031 375.531 12.5781 375.37 11.5781 375.047C10.5677 374.724 9.70833 374.271 9 373.688C8.28125 373.104 7.73438 372.411 7.35938 371.609C6.97396 370.797 6.78125 369.891 6.78125 368.891C6.78125 368.099 6.89583 367.375 7.125 366.719C7.35417 366.062 7.71875 365.5 8.21875 365.031C8.71875 364.552 9.38021 364.188 10.2031 363.938C11.026 363.677 12.0313 363.547 13.2188 363.547H24V368.078H13.2031C12.4531 368.078 11.8698 368.182 11.4531 368.391C11.0365 368.599 10.7448 368.906 10.5781 369.312C10.401 369.708 10.3125 370.198 10.3125 370.781C10.3125 371.385 10.4323 371.911 10.6719 372.359C10.9115 372.797 11.2448 373.161 11.6719 373.453C12.0885 373.734 12.5781 373.948 13.1406 374.094C13.7031 374.24 14.3073 374.312 14.9531 374.312ZM20.3125 346.941H0V342.409H24V346.488L20.3125 346.941ZM15.75 357.628H15.4219C14.1302 357.628 12.9583 357.482 11.9063 357.191C10.8438 356.899 9.93229 356.472 9.17188 355.909C8.41146 355.347 7.82292 354.654 7.40625 353.831C6.98958 353.008 6.78125 352.071 6.78125 351.019C6.78125 350.029 6.98958 349.165 7.40625 348.425C7.82292 347.675 8.41667 347.04 9.1875 346.519C9.94792 345.988 10.849 345.56 11.8906 345.238C12.9219 344.915 14.0521 344.68 15.2813 344.534H16C17.1771 344.68 18.2708 344.915 19.2813 345.238C20.2917 345.56 21.1771 345.988 21.9375 346.519C22.6875 347.04 23.2708 347.675 23.6875 348.425C24.1042 349.175 24.3125 350.05 24.3125 351.05C24.3125 352.102 24.099 353.04 23.6719 353.863C23.2448 354.675 22.6458 355.363 21.875 355.925C21.1042 356.477 20.1979 356.899 19.1563 357.191C18.1146 357.482 16.9792 357.628 15.75 357.628ZM15.4219 353.128H15.75C16.4479 353.128 17.099 353.076 17.7031 352.972C18.3073 352.857 18.8438 352.675 19.3125 352.425C19.7708 352.165 20.1302 351.831 20.3906 351.425C20.6406 351.008 20.7656 350.503 20.7656 349.909C20.7656 349.139 20.5938 348.503 20.25 348.003C19.8958 347.503 19.4115 347.123 18.7969 346.863C18.1823 346.592 17.474 346.435 16.6719 346.394H14.625C13.9688 346.425 13.3802 346.519 12.8594 346.675C12.3281 346.821 11.875 347.04 11.5 347.331C11.125 347.613 10.8333 347.967 10.625 348.394C10.4167 348.81 10.3125 349.305 10.3125 349.878C10.3125 350.461 10.4479 350.961 10.7188 351.378C10.9792 351.795 11.3385 352.133 11.7969 352.394C12.2552 352.644 12.7969 352.831 13.4219 352.956C14.0365 353.071 14.7031 353.128 15.4219 353.128ZM7.09375 316.244H10.2813V326.087H7.09375L7.09375 316.244ZM2.92188 323.65V319.15H18.9063C19.3958 319.15 19.7708 319.087 20.0313 318.962C20.2917 318.827 20.474 318.629 20.5781 318.369C20.6719 318.108 20.7188 317.78 20.7188 317.384C20.7188 317.103 20.7083 316.853 20.6875 316.634C20.6563 316.405 20.625 316.212 20.5938 316.056L23.9063 316.041C24.0313 316.426 24.1302 316.843 24.2031 317.291C24.276 317.739 24.3125 318.233 24.3125 318.775C24.3125 319.765 24.151 320.629 23.8281 321.369C23.4948 322.098 22.9635 322.66 22.2344 323.056C21.5052 323.452 20.5469 323.65 19.3594 323.65H2.92188ZM15.7188 311.606H15.3906C14.151 311.606 13.0104 311.429 11.9688 311.075C10.9167 310.721 10.0052 310.205 9.23438 309.528C8.46354 308.851 7.86458 308.018 7.4375 307.028C7 306.039 6.78125 304.903 6.78125 303.622C6.78125 302.341 7 301.2 7.4375 300.2C7.86458 299.2 8.46354 298.361 9.23438 297.684C10.0052 296.997 10.9167 296.476 11.9688 296.122C13.0104 295.768 14.151 295.591 15.3906 295.591H15.7188C16.9479 295.591 18.0885 295.768 19.1406 296.122C20.1823 296.476 21.0938 296.997 21.875 297.684C22.6458 298.361 23.2448 299.195 23.6719 300.184C24.099 301.174 24.3125 302.309 24.3125 303.591C24.3125 304.872 24.099 306.012 23.6719 307.012C23.2448 308.002 22.6458 308.841 21.875 309.528C21.0938 310.205 20.1823 310.721 19.1406 311.075C18.0885 311.429 16.9479 311.606 15.7188 311.606ZM15.3906 307.106H15.7188C16.4271 307.106 17.0885 307.044 17.7031 306.919C18.3177 306.794 18.8594 306.596 19.3281 306.325C19.7865 306.044 20.1458 305.679 20.4063 305.231C20.6667 304.783 20.7969 304.236 20.7969 303.591C20.7969 302.966 20.6667 302.429 20.4063 301.981C20.1458 301.533 19.7865 301.174 19.3281 300.903C18.8594 300.632 18.3177 300.434 17.7031 300.309C17.0885 300.174 16.4271 300.106 15.7188 300.106H15.3906C14.7031 300.106 14.0573 300.174 13.4531 300.309C12.8385 300.434 12.2969 300.637 11.8281 300.919C11.349 301.19 10.974 301.549 10.7031 301.997C10.4323 302.445 10.2969 302.986 10.2969 303.622C10.2969 304.257 10.4323 304.799 10.7031 305.247C10.974 305.684 11.349 306.044 11.8281 306.325C12.2969 306.596 12.8385 306.794 13.4531 306.919C14.0573 307.044 14.7031 307.106 15.3906 307.106ZM10.3438 273.956H30.5V278.456H7.09375V274.284L10.3438 273.956ZM15.3594 263.253H15.6875C16.9167 263.253 18.0573 263.399 19.1094 263.691C20.1615 263.972 21.0781 264.389 21.8594 264.941C22.6302 265.493 23.2344 266.18 23.6719 267.003C24.099 267.816 24.3125 268.753 24.3125 269.816C24.3125 270.847 24.1042 271.743 23.6875 272.503C23.2708 273.264 22.6875 273.904 21.9375 274.425C21.1771 274.935 20.2969 275.347 19.2969 275.659C18.2969 275.972 17.224 276.211 16.0781 276.378H15.2188C13.9896 276.211 12.8646 275.972 11.8438 275.659C10.8125 275.347 9.92188 274.935 9.17188 274.425C8.41146 273.904 7.82292 273.269 7.40625 272.519C6.98958 271.758 6.78125 270.868 6.78125 269.847C6.78125 268.774 6.98438 267.831 7.39063 267.019C7.79688 266.196 8.38021 265.508 9.14063 264.956C9.90104 264.394 10.8073 263.972 11.8594 263.691C12.9115 263.399 14.0781 263.253 15.3594 263.253ZM15.6875 267.769H15.3594C14.6406 267.769 13.9792 267.831 13.375 267.956C12.7604 268.071 12.224 268.258 11.7656 268.519C11.3073 268.769 10.9531 269.102 10.7031 269.519C10.4427 269.925 10.3125 270.42 10.3125 271.003C10.3125 271.618 10.4115 272.144 10.6094 272.581C10.8073 273.008 11.0938 273.357 11.4688 273.628C11.8438 273.899 12.2917 274.102 12.8125 274.238C13.3333 274.373 13.9219 274.456 14.5781 274.488H16.75C17.5208 274.435 18.2135 274.29 18.8281 274.05C19.4323 273.81 19.9115 273.441 20.2656 272.941C20.6198 272.441 20.7969 271.784 20.7969 270.972C20.7969 270.378 20.6667 269.878 20.4063 269.472C20.1354 269.066 19.7656 268.738 19.2969 268.488C18.8281 268.227 18.2865 268.045 17.6719 267.941C17.0573 267.826 16.3958 267.769 15.6875 267.769ZM24.3125 249.475C24.3125 250.788 24.1042 251.965 23.6875 253.006C23.2604 254.048 22.6719 254.933 21.9219 255.663C21.1719 256.381 20.3021 256.933 19.3125 257.319C18.3125 257.704 17.25 257.897 16.125 257.897H15.5C14.2188 257.897 13.0469 257.715 11.9844 257.35C10.9219 256.985 10 256.465 9.21875 255.788C8.4375 255.1 7.83854 254.267 7.42188 253.288C6.99479 252.308 6.78125 251.204 6.78125 249.975C6.78125 248.777 6.97917 247.715 7.375 246.788C7.77083 245.86 8.33333 245.084 9.0625 244.459C9.79167 243.824 10.6667 243.345 11.6875 243.022C12.6979 242.699 13.8229 242.538 15.0625 242.538H16.9375V255.975H13.9375V246.959H13.5938C12.9688 246.959 12.4115 247.074 11.9219 247.303C11.4219 247.522 11.026 247.855 10.7344 248.303C10.4427 248.751 10.2969 249.324 10.2969 250.022C10.2969 250.616 10.4271 251.126 10.6875 251.553C10.9479 251.98 11.3125 252.329 11.7813 252.6C12.25 252.86 12.8021 253.058 13.4375 253.194C14.0625 253.319 14.75 253.381 15.5 253.381H16.125C16.8021 253.381 17.4271 253.288 18 253.1C18.5729 252.902 19.0677 252.626 19.4844 252.272C19.901 251.907 20.224 251.47 20.4531 250.959C20.6823 250.439 20.7969 249.85 20.7969 249.194C20.7969 248.381 20.6406 247.626 20.3281 246.928C20.0052 246.22 19.5208 245.61 18.875 245.1L21.25 242.913C21.7604 243.267 22.25 243.751 22.7188 244.366C23.1875 244.97 23.5729 245.699 23.875 246.553C24.1667 247.407 24.3125 248.381 24.3125 249.475ZM15.7188 237.494H15.3906C14.151 237.494 13.0104 237.317 11.9688 236.962C10.9167 236.608 10.0052 236.093 9.23438 235.416C8.46354 234.739 7.86458 233.905 7.4375 232.916C7 231.926 6.78125 230.791 6.78125 229.509C6.78125 228.228 7 227.087 7.4375 226.087C7.86458 225.087 8.46354 224.249 9.23438 223.572C10.0052 222.884 10.9167 222.364 11.9688 222.009C13.0104 221.655 14.151 221.478 15.3906 221.478H15.7188C16.9479 221.478 18.0885 221.655 19.1406 222.009C20.1823 222.364 21.0938 222.884 21.875 223.572C22.6458 224.249 23.2448 225.082 23.6719 226.072C24.099 227.061 24.3125 228.197 24.3125 229.478C24.3125 230.759 24.099 231.9 23.6719 232.9C23.2448 233.89 22.6458 234.728 21.875 235.416C21.0938 236.093 20.1823 236.608 19.1406 236.962C18.0885 237.317 16.9479 237.494 15.7188 237.494ZM15.3906 232.994H15.7188C16.4271 232.994 17.0885 232.931 17.7031 232.806C18.3177 232.681 18.8594 232.483 19.3281 232.212C19.7865 231.931 20.1458 231.567 20.4063 231.119C20.6667 230.671 20.7969 230.124 20.7969 229.478C20.7969 228.853 20.6667 228.317 20.4063 227.869C20.1458 227.421 19.7865 227.061 19.3281 226.791C18.8594 226.52 18.3177 226.322 17.7031 226.197C17.0885 226.061 16.4271 225.994 15.7188 225.994H15.3906C14.7031 225.994 14.0573 226.061 13.4531 226.197C12.8385 226.322 12.2969 226.525 11.8281 226.806C11.349 227.077 10.974 227.436 10.7031 227.884C10.4323 228.332 10.2969 228.874 10.2969 229.509C10.2969 230.145 10.4323 230.686 10.7031 231.134C10.974 231.572 11.349 231.931 11.8281 232.212C12.2969 232.483 12.8385 232.681 13.4531 232.806C14.0573 232.931 14.7031 232.994 15.3906 232.994ZM10.3438 211.013H30.5V215.513H7.09375V211.341L10.3438 211.013ZM15.3594 200.309H15.6875C16.9167 200.309 18.0573 200.455 19.1094 200.747C20.1615 201.028 21.0781 201.445 21.8594 201.997C22.6302 202.549 23.2344 203.236 23.6719 204.059C24.099 204.872 24.3125 205.809 24.3125 206.872C24.3125 207.903 24.1042 208.799 23.6875 209.559C23.2708 210.32 22.6875 210.96 21.9375 211.481C21.1771 211.992 20.2969 212.403 19.2969 212.716C18.2969 213.028 17.224 213.268 16.0781 213.434H15.2188C13.9896 213.268 12.8646 213.028 11.8438 212.716C10.8125 212.403 9.92188 211.992 9.17188 211.481C8.41146 210.96 7.82292 210.325 7.40625 209.575C6.98958 208.815 6.78125 207.924 6.78125 206.903C6.78125 205.83 6.98438 204.888 7.39063 204.075C7.79688 203.252 8.38021 202.565 9.14063 202.013C9.90104 201.45 10.8073 201.028 11.8594 200.747C12.9115 200.455 14.0781 200.309 15.3594 200.309ZM15.6875 204.825H15.3594C14.6406 204.825 13.9792 204.888 13.375 205.013C12.7604 205.127 12.224 205.315 11.7656 205.575C11.3073 205.825 10.9531 206.158 10.7031 206.575C10.4427 206.981 10.3125 207.476 10.3125 208.059C10.3125 208.674 10.4115 209.2 10.6094 209.638C10.8073 210.065 11.0938 210.414 11.4688 210.684C11.8438 210.955 12.2917 211.158 12.8125 211.294C13.3333 211.429 13.9219 211.513 14.5781 211.544H16.75C17.5208 211.492 18.2135 211.346 18.8281 211.106C19.4323 210.867 19.9115 210.497 20.2656 209.997C20.6198 209.497 20.7969 208.841 20.7969 208.028C20.7969 207.434 20.6667 206.934 20.4063 206.528C20.1354 206.122 19.7656 205.794 19.2969 205.544C18.8281 205.283 18.2865 205.101 17.6719 204.997C17.0573 204.882 16.3958 204.825 15.6875 204.825ZM0 189.562H24V194.078H0V189.562ZM24.3125 174.862C24.3125 176.175 24.1042 177.352 23.6875 178.394C23.2604 179.435 22.6719 180.321 21.9219 181.05C21.1719 181.769 20.3021 182.321 19.3125 182.706C18.3125 183.092 17.25 183.284 16.125 183.284H15.5C14.2188 183.284 13.0469 183.102 11.9844 182.737C10.9219 182.373 10 181.852 9.21875 181.175C8.4375 180.487 7.83854 179.654 7.42188 178.675C6.99479 177.696 6.78125 176.592 6.78125 175.362C6.78125 174.165 6.97917 173.102 7.375 172.175C7.77083 171.248 8.33333 170.472 9.0625 169.847C9.79167 169.211 10.6667 168.732 11.6875 168.409C12.6979 168.086 13.8229 167.925 15.0625 167.925H16.9375V181.362H13.9375V172.347H13.5938C12.9688 172.347 12.4115 172.461 11.9219 172.691C11.4219 172.909 11.026 173.243 10.7344 173.691C10.4427 174.139 10.2969 174.711 10.2969 175.409C10.2969 176.003 10.4271 176.514 10.6875 176.941C10.9479 177.368 11.3125 177.717 11.7813 177.987C12.25 178.248 12.8021 178.446 13.4375 178.581C14.0625 178.706 14.75 178.769 15.5 178.769H16.125C16.8021 178.769 17.4271 178.675 18 178.487C18.5729 178.29 19.0677 178.014 19.4844 177.659C19.901 177.295 20.224 176.857 20.4531 176.347C20.6823 175.826 20.7969 175.237 20.7969 174.581C20.7969 173.769 20.6406 173.014 20.3281 172.316C20.0052 171.607 19.5208 170.998 18.875 170.487L21.25 168.3C21.7604 168.654 22.25 169.139 22.7188 169.753C23.1875 170.357 23.5729 171.086 23.875 171.941C24.1667 172.795 24.3125 173.769 24.3125 174.862ZM0 159.85H2.26563L8.5 160.303V163.147L2.5 163.131H0V159.85ZM19.3281 146.259C19.0052 146.259 18.7135 146.353 18.4531 146.541C18.1927 146.728 17.9531 147.077 17.7344 147.587C17.5052 148.087 17.2969 148.811 17.1094 149.759C16.9219 150.614 16.6875 151.41 16.4063 152.15C16.1146 152.879 15.7656 153.515 15.3594 154.056C14.9531 154.587 14.474 155.004 13.9219 155.306C13.3594 155.608 12.7188 155.759 12 155.759C11.2917 155.759 10.625 155.608 10 155.306C9.375 154.994 8.82292 154.551 8.34375 153.978C7.85417 153.395 7.47396 152.686 7.20313 151.853C6.92188 151.009 6.78125 150.061 6.78125 149.009C6.78125 147.541 7.01563 146.28 7.48438 145.228C7.95313 144.166 8.59896 143.353 9.42188 142.791C10.2344 142.218 11.1615 141.931 12.2031 141.931V146.431C11.7656 146.431 11.375 146.525 11.0313 146.712C10.6771 146.89 10.401 147.171 10.2031 147.556C9.99479 147.931 9.89063 148.421 9.89063 149.025C9.89063 149.525 9.97917 149.957 10.1563 150.322C10.3229 150.686 10.5521 150.968 10.8438 151.166C11.125 151.353 11.4375 151.447 11.7813 151.447C12.0417 151.447 12.276 151.395 12.4844 151.291C12.6823 151.176 12.8646 150.994 13.0313 150.744C13.1979 150.494 13.3542 150.171 13.5 149.775C13.6354 149.369 13.7604 148.869 13.875 148.275C14.125 147.056 14.4531 145.968 14.8594 145.009C15.2552 144.051 15.7969 143.291 16.4844 142.728C17.1615 142.166 18.0521 141.884 19.1563 141.884C19.9063 141.884 20.5938 142.051 21.2188 142.384C21.8438 142.718 22.3906 143.197 22.8594 143.822C23.3177 144.447 23.6771 145.197 23.9375 146.072C24.1875 146.936 24.3125 147.91 24.3125 148.994C24.3125 150.567 24.0313 151.9 23.4688 152.994C22.9063 154.077 22.1927 154.9 21.3281 155.462C20.4531 156.015 19.5573 156.291 18.6406 156.291V152.025C19.2552 152.004 19.75 151.848 20.125 151.556C20.5 151.254 20.7708 150.874 20.9375 150.416C21.1042 149.947 21.1875 149.442 21.1875 148.9C21.1875 148.317 21.1094 147.832 20.9531 147.447C20.7865 147.061 20.5677 146.77 20.2969 146.572C20.0156 146.364 19.6927 146.259 19.3281 146.259ZM19.625 119.766L7.09375 116.25L7.09375 113.391L12.0156 114.312L24 117.828V120.219L19.625 119.766ZM7.09375 121.547L19.6094 119.031L24 118.797V121.609L7.09375 125.891V121.547ZM19.4063 110.172L7.09375 107.719V103.359L24 107.641V110.438L19.4063 110.172ZM7.09375 113L19.5313 109.5L24 109.016V111.422L12.0313 114.938L7.09375 115.828L7.09375 113ZM7.09375 93.1437H24V97.6594H7.09375V93.1437ZM2.6875 97.9406C2.03125 97.9406 1.48958 97.7114 1.0625 97.2531C0.635417 96.7948 0.421875 96.1802 0.421875 95.4094C0.421875 94.6489 0.635417 94.0396 1.0625 93.5812C1.48958 93.1125 2.03125 92.8781 2.6875 92.8781C3.34375 92.8781 3.88542 93.1125 4.3125 93.5812C4.73958 94.0396 4.95313 94.6489 4.95313 95.4094C4.95313 96.1802 4.73958 96.7948 4.3125 97.2531C3.88542 97.7114 3.34375 97.9406 2.6875 97.9406ZM19.3281 77.0844C19.0052 77.0844 18.7135 77.1781 18.4531 77.3656C18.1927 77.5531 17.9531 77.9021 17.7344 78.4125C17.5052 78.9125 17.2969 79.6365 17.1094 80.5844C16.9219 81.4385 16.6875 82.2354 16.4063 82.975C16.1146 83.7042 15.7656 84.3396 15.3594 84.8813C14.9531 85.4125 14.474 85.8292 13.9219 86.1313C13.3594 86.4333 12.7188 86.5844 12 86.5844C11.2917 86.5844 10.625 86.4333 10 86.1313C9.375 85.8188 8.82292 85.376 8.34375 84.8031C7.85417 84.2198 7.47396 83.5115 7.20313 82.6781C6.92188 81.8344 6.78125 80.8865 6.78125 79.8344C6.78125 78.3656 7.01563 77.1052 7.48438 76.0531C7.95313 74.9906 8.59896 74.1781 9.42188 73.6156C10.2344 73.0427 11.1615 72.7563 12.2031 72.7563V77.2563C11.7656 77.2563 11.375 77.35 11.0313 77.5375C10.6771 77.7146 10.401 77.9958 10.2031 78.3813C9.99479 78.7563 9.89063 79.2458 9.89063 79.85C9.89063 80.35 9.97917 80.7823 10.1563 81.1469C10.3229 81.5115 10.5521 81.7927 10.8438 81.9906C11.125 82.1781 11.4375 82.2719 11.7813 82.2719C12.0417 82.2719 12.276 82.2198 12.4844 82.1156C12.6823 82.001 12.8646 81.8188 13.0313 81.5688C13.1979 81.3188 13.3542 80.9958 13.5 80.6C13.6354 80.1938 13.7604 79.6938 13.875 79.1C14.125 77.8813 14.4531 76.7927 14.8594 75.8344C15.2552 74.876 15.7969 74.1156 16.4844 73.5531C17.1615 72.9906 18.0521 72.7094 19.1563 72.7094C19.9063 72.7094 20.5938 72.876 21.2188 73.2094C21.8438 73.5427 22.3906 74.0219 22.8594 74.6469C23.3177 75.2719 23.6771 76.0219 23.9375 76.8969C24.1875 77.7615 24.3125 78.7354 24.3125 79.8188C24.3125 81.3917 24.0313 82.725 23.4688 83.8188C22.9063 84.9021 22.1927 85.725 21.3281 86.2875C20.4531 86.8396 19.5573 87.1156 18.6406 87.1156V82.85C19.2552 82.8292 19.75 82.6729 20.125 82.3813C20.5 82.0792 20.7708 81.699 20.9375 81.2406C21.1042 80.7719 21.1875 80.2667 21.1875 79.725C21.1875 79.1417 21.1094 78.6573 20.9531 78.2719C20.7865 77.8865 20.5677 77.5948 20.2969 77.3969C20.0156 77.1885 19.6927 77.0844 19.3281 77.0844ZM0 62.1969H24V66.6969H0L0 62.1969ZM14.9531 62.8375V64.0719C13.776 64.0615 12.6927 63.9052 11.7031 63.6031C10.7031 63.301 9.83854 62.8687 9.10938 62.3062C8.36979 61.7437 7.79688 61.0719 7.39063 60.2906C6.98438 59.499 6.78125 58.624 6.78125 57.6656C6.78125 56.8323 6.90104 56.0771 7.14063 55.4C7.36979 54.7125 7.74479 54.124 8.26563 53.6344C8.77604 53.1344 9.44792 52.749 10.2813 52.4781C11.1146 52.2073 12.125 52.0719 13.3125 52.0719H24V56.6031H13.2813C12.5313 56.6031 11.9427 56.7125 11.5156 56.9312C11.0781 57.1396 10.7708 57.4469 10.5938 57.8531C10.4063 58.249 10.3125 58.7385 10.3125 59.3219C10.3125 59.9677 10.4323 60.5198 10.6719 60.9781C10.9115 61.426 11.2448 61.7854 11.6719 62.0562C12.0885 62.3271 12.5781 62.525 13.1406 62.65C13.7031 62.775 14.3073 62.8375 14.9531 62.8375ZM24.3125 37.6688C24.3125 38.9813 24.1042 40.1583 23.6875 41.2C23.2604 42.2417 22.6719 43.1271 21.9219 43.8563C21.1719 44.575 20.3021 45.1271 19.3125 45.5125C18.3125 45.8979 17.25 46.0906 16.125 46.0906H15.5C14.2188 46.0906 13.0469 45.9083 11.9844 45.5438C10.9219 45.1792 10 44.6583 9.21875 43.9813C8.4375 43.2938 7.83854 42.4604 7.42188 41.4813C6.99479 40.5021 6.78125 39.3979 6.78125 38.1688C6.78125 36.9708 6.97917 35.9083 7.375 34.9813C7.77083 34.0542 8.33333 33.2781 9.0625 32.6531C9.79167 32.0177 10.6667 31.5386 11.6875 31.2156C12.6979 30.8927 13.8229 30.7313 15.0625 30.7313H16.9375L16.9375 44.1688H13.9375L13.9375 35.1531H13.5938C12.9688 35.1531 12.4115 35.2677 11.9219 35.4969C11.4219 35.7156 11.026 36.049 10.7344 36.4969C10.4427 36.9448 10.2969 37.5177 10.2969 38.2156C10.2969 38.8094 10.4271 39.3198 10.6875 39.7469C10.9479 40.174 11.3125 40.5229 11.7813 40.7938C12.25 41.0542 12.8021 41.2521 13.4375 41.3875C14.0625 41.5125 14.75 41.575 15.5 41.575H16.125C16.8021 41.575 17.4271 41.4813 18 41.2938C18.5729 41.0958 19.0677 40.8198 19.4844 40.4656C19.901 40.1011 20.224 39.6636 20.4531 39.1531C20.6823 38.6323 20.7969 38.0438 20.7969 37.3875C20.7969 36.575 20.6406 35.8198 20.3281 35.1219C20.0052 34.4136 19.5208 33.8042 18.875 33.2938L21.25 31.1063C21.7604 31.4604 22.25 31.9448 22.7188 32.5594C23.1875 33.1636 23.5729 33.8927 23.875 34.7469C24.1667 35.6011 24.3125 36.575 24.3125 37.6688ZM19.3281 15.8281C19.0052 15.8281 18.7135 15.9219 18.4531 16.1094C18.1927 16.2969 17.9531 16.6458 17.7344 17.1562C17.5052 17.6562 17.2969 18.3802 17.1094 19.3281C16.9219 20.1823 16.6875 20.9792 16.4063 21.7188C16.1146 22.4479 15.7656 23.0833 15.3594 23.625C14.9531 24.1562 14.474 24.5729 13.9219 24.875C13.3594 25.1771 12.7188 25.3281 12 25.3281C11.2917 25.3281 10.625 25.1771 10 24.875C9.375 24.5625 8.82292 24.1198 8.34375 23.5469C7.85417 22.9635 7.47396 22.2552 7.20313 21.4219C6.92188 20.5781 6.78125 19.6302 6.78125 18.5781C6.78125 17.1094 7.01563 15.849 7.48438 14.7969C7.95313 13.7344 8.59896 12.9219 9.42188 12.3594C10.2344 11.7865 11.1615 11.5 12.2031 11.5V16C11.7656 16 11.375 16.0938 11.0313 16.2812C10.6771 16.4583 10.401 16.7396 10.2031 17.125C9.99479 17.5 9.89063 17.9896 9.89063 18.5938C9.89063 19.0938 9.97917 19.526 10.1563 19.8906C10.3229 20.2552 10.5521 20.5365 10.8438 20.7344C11.125 20.9219 11.4375 21.0156 11.7813 21.0156C12.0417 21.0156 12.276 20.9635 12.4844 20.8594C12.6823 20.7448 12.8646 20.5625 13.0313 20.3125C13.1979 20.0625 13.3542 19.7396 13.5 19.3438C13.6354 18.9375 13.7604 18.4375 13.875 17.8438C14.125 16.625 14.4531 15.5365 14.8594 14.5781C15.2552 13.6198 15.7969 12.8594 16.4844 12.2969C17.1615 11.7344 18.0521 11.4531 19.1563 11.4531C19.9063 11.4531 20.5938 11.6198 21.2188 11.9531C21.8438 12.2865 22.3906 12.7656 22.8594 13.3906C23.3177 14.0156 23.6771 14.7656 23.9375 15.6406C24.1875 16.5052 24.3125 17.4792 24.3125 18.5625C24.3125 20.1354 24.0313 21.4688 23.4688 22.5625C22.9063 23.6458 22.1927 24.4688 21.3281 25.0312C20.4531 25.5833 19.5573 25.8594 18.6406 25.8594V21.5938C19.2552 21.5729 19.75 21.4167 20.125 21.125C20.5 20.8229 20.7708 20.4427 20.9375 19.9844C21.1042 19.5156 21.1875 19.0104 21.1875 18.4688C21.1875 17.8854 21.1094 17.401 20.9531 17.0156C20.7865 16.6302 20.5677 16.3385 20.2969 16.1406C20.0156 15.9323 19.6927 15.8281 19.3281 15.8281ZM21.8281 5.11249C21.1615 5.11249 20.6042 4.88332 20.1563 4.42499C19.7083 3.95624 19.4844 3.33645 19.4844 2.56561C19.4844 1.79478 19.7083 1.1802 20.1563 0.721863C20.6042 0.253113 21.1615 0.0187378 21.8281 0.0187378C22.4948 0.0187378 23.0521 0.253113 23.5 0.721863C23.9479 1.1802 24.1719 1.79478 24.1719 2.56561C24.1719 3.33645 23.9479 3.95624 23.5 4.42499C23.0521 4.88332 22.4948 5.11249 21.8281 5.11249Z" fill="#4CB6E9" fill-opacity="0.3"/>
</svg>
