<svg width="32" height="283" viewBox="0 0 32 283" fill="none" xmlns="http://www.w3.org/2000/svg">
<path d="M11.6719 10.8906C11.9948 10.8906 12.2865 10.7969 12.5469 10.6094C12.8073 10.4219 13.0469 10.0729 13.2656 9.5625C13.4948 9.0625 13.7031 8.33854 13.8906 7.39062C14.0781 6.53646 14.3125 5.73958 14.5938 5C14.8854 4.27083 15.2344 3.63542 15.6406 3.09375C16.0469 2.5625 16.526 2.14583 17.0781 1.84375C17.6406 1.54167 18.2812 1.39062 19 1.39062C19.7083 1.39062 20.375 1.54167 21 1.84375C21.625 2.15625 22.1771 2.59896 22.6562 3.17187C23.1458 3.75521 23.526 4.46354 23.7969 5.29687C24.0781 6.14062 24.2188 7.08854 24.2188 8.14062C24.2188 9.60938 23.9844 10.8698 23.5156 11.9219C23.0469 12.9844 22.401 13.7969 21.5781 14.3594C20.7656 14.9323 19.8385 15.2187 18.7969 15.2187V10.7187C19.2344 10.7187 19.625 10.625 19.9688 10.4375C20.3229 10.2604 20.599 9.97917 20.7969 9.59375C21.0052 9.21875 21.1094 8.72917 21.1094 8.125C21.1094 7.625 21.0208 7.19271 20.8438 6.82812C20.6771 6.46354 20.4479 6.18229 20.1562 5.98437C19.875 5.79687 19.5625 5.70312 19.2188 5.70312C18.9583 5.70312 18.724 5.75521 18.5156 5.85937C18.3177 5.97396 18.1354 6.15625 17.9688 6.40625C17.8021 6.65625 17.6458 6.97917 17.5 7.375C17.3646 7.78125 17.2396 8.28125 17.125 8.875C16.875 10.0937 16.5469 11.1823 16.1406 12.1406C15.7448 13.099 15.2031 13.8594 14.5156 14.4219C13.8385 14.9844 12.9479 15.2656 11.8438 15.2656C11.0938 15.2656 10.4062 15.099 9.78125 14.7656C9.15625 14.4323 8.60938 13.9531 8.14062 13.3281C7.68229 12.7031 7.32292 11.9531 7.0625 11.0781C6.8125 10.2135 6.6875 9.23958 6.6875 8.15625C6.6875 6.58333 6.96875 5.25 7.53125 4.15625C8.09375 3.07292 8.80729 2.25 9.67188 1.6875C10.5469 1.13542 11.4427 0.859375 12.3594 0.859375V5.125C11.7448 5.14583 11.25 5.30208 10.875 5.59375C10.5 5.89583 10.2292 6.27604 10.0625 6.73437C9.89583 7.20312 9.8125 7.70833 9.8125 8.25C9.8125 8.83333 9.89062 9.31771 10.0469 9.70312C10.2135 10.0885 10.4323 10.3802 10.7031 10.5781C10.9844 10.7865 11.3073 10.8906 11.6719 10.8906ZM6.6875 29.1688C6.6875 27.8563 6.89583 26.6792 7.3125 25.6375C7.73958 24.5958 8.32812 23.7104 9.07812 22.9813C9.82812 22.2625 10.6979 21.7104 11.6875 21.325C12.6875 20.9396 13.75 20.7469 14.875 20.7469H15.5C16.7812 20.7469 17.9531 20.9292 19.0156 21.2938C20.0781 21.6583 21 22.1792 21.7812 22.8563C22.5625 23.5438 23.1615 24.3771 23.5781 25.3563C24.0052 26.3354 24.2188 27.4396 24.2188 28.6688C24.2188 29.8667 24.0208 30.9292 23.625 31.8563C23.2292 32.7833 22.6667 33.5594 21.9375 34.1844C21.2083 34.8198 20.3333 35.299 19.3125 35.6219C18.3021 35.9448 17.1771 36.1063 15.9375 36.1063H14.0625L14.0625 22.6688H17.0625L17.0625 31.6844H17.4062C18.0312 31.6844 18.5885 31.5698 19.0781 31.3406C19.5781 31.1219 19.974 30.7885 20.2656 30.3406C20.5573 29.8927 20.7031 29.3198 20.7031 28.6219C20.7031 28.0281 20.5729 27.5177 20.3125 27.0906C20.0521 26.6635 19.6875 26.3146 19.2188 26.0438C18.75 25.7833 18.1979 25.5854 17.5625 25.45C16.9375 25.325 16.25 25.2625 15.5 25.2625H14.875C14.1979 25.2625 13.5729 25.3563 13 25.5438C12.4271 25.7417 11.9323 26.0177 11.5156 26.3719C11.099 26.7365 10.776 27.174 10.5469 27.6844C10.3177 28.2052 10.2031 28.7938 10.2031 29.45C10.2031 30.2625 10.3594 31.0177 10.6719 31.7156C10.9948 32.424 11.4792 33.0333 12.125 33.5438L9.75 35.7313C9.23958 35.3771 8.75 34.8927 8.28125 34.2781C7.8125 33.674 7.42708 32.9448 7.125 32.0906C6.83333 31.2365 6.6875 30.2625 6.6875 29.1688ZM31 46.6188H7V42.1031H31V46.6188ZM7 59.2719V54.7406H25.4062C26.6875 54.7406 27.7656 54.9906 28.6406 55.4906C29.526 56.001 30.1927 56.7146 30.6406 57.6312C31.099 58.5583 31.3281 59.6573 31.3281 60.9281C31.3281 61.3448 31.2969 61.7458 31.2344 62.1312C31.1823 62.5167 31.1146 62.8917 31.0312 63.2562L27.6406 63.2094C27.6927 63.0115 27.7292 62.8031 27.75 62.5844C27.7708 62.3656 27.7812 62.1104 27.7812 61.8187C27.7812 61.2771 27.6875 60.8135 27.5 60.4281C27.3229 60.0531 27.0573 59.7667 26.7031 59.5687C26.349 59.3708 25.9167 59.2719 25.4062 59.2719H7ZM23.9062 62.6469H20.7187V52.225H23.9062V62.6469ZM18.5312 77.0813H15V68.2531H18.5312V77.0813ZM0.5 94.0156H20.4531L23.9062 94.5938V98.5469H0.5V94.0156ZM15.2812 83.3281H15.6094C16.901 83.3281 18.0729 83.4688 19.125 83.75C20.1875 84.0417 21.0937 84.4688 21.8437 85.0312C22.6042 85.5938 23.1875 86.2812 23.5937 87.0938C24.0104 87.9167 24.2187 88.8646 24.2187 89.9375C24.2187 90.9688 24.0104 91.8594 23.5937 92.6094C23.1771 93.3594 22.5885 93.9896 21.8281 94.5C21.0677 95.0208 20.1719 95.4375 19.1406 95.75C18.1094 96.0625 16.9792 96.3021 15.75 96.4688H15.0312C13.8542 96.3125 12.7604 96.0729 11.75 95.75C10.7396 95.4375 9.85417 95.0208 9.09375 94.5C8.33333 93.9896 7.73958 93.3542 7.3125 92.5938C6.89583 91.8438 6.6875 90.9479 6.6875 89.9062C6.6875 88.8542 6.90104 87.9167 7.32812 87.0938C7.76562 86.2812 8.36979 85.5938 9.14062 85.0312C9.91146 84.4688 10.8177 84.0417 11.8594 83.75C12.9115 83.4688 14.0521 83.3281 15.2812 83.3281ZM15.6094 87.8281H15.2812C14.5833 87.8281 13.9271 87.8854 13.3125 88C12.7083 88.1146 12.1719 88.2969 11.7031 88.5469C11.2344 88.8073 10.8646 89.1406 10.5937 89.5469C10.3333 89.9531 10.2031 90.4531 10.2031 91.0469C10.2031 91.8698 10.3802 92.5312 10.7344 93.0312C11.099 93.5417 11.5937 93.9167 12.2187 94.1562C12.8437 94.4062 13.5573 94.5521 14.3594 94.5938H16.4062C17.0625 94.5625 17.651 94.474 18.1719 94.3281C18.7031 94.1927 19.1562 93.9844 19.5312 93.7031C19.9062 93.4323 20.1927 93.0781 20.3906 92.6406C20.599 92.2135 20.7031 91.6927 20.7031 91.0781C20.7031 90.4948 20.5729 89.9948 20.3125 89.5781C20.0521 89.1615 19.6875 88.8229 19.2187 88.5625C18.7604 88.3125 18.224 88.125 17.6094 88C16.9948 87.8854 16.3281 87.8281 15.6094 87.8281ZM11.0469 115.294H23.9062V119.794H7V115.559L11.0469 115.294ZM14.5156 115.794L14.5469 117.122C13.4219 117.122 12.375 116.992 11.4062 116.731C10.4479 116.471 9.61458 116.08 8.90625 115.559C8.20833 115.039 7.66146 114.382 7.26562 113.591C6.88021 112.799 6.6875 111.867 6.6875 110.794C6.6875 109.971 6.80208 109.21 7.03125 108.512C7.27083 107.825 7.64062 107.231 8.14062 106.731C8.65104 106.242 9.30208 105.856 10.0937 105.575C10.8958 105.304 11.8594 105.169 12.9844 105.169H23.9062V109.669H12.9531C12.4531 109.669 12.0312 109.726 11.6875 109.841C11.3437 109.966 11.0625 110.137 10.8437 110.356C10.625 110.575 10.4687 110.83 10.375 111.122C10.2812 111.424 10.2344 111.757 10.2344 112.122C10.2344 113.049 10.4219 113.778 10.7969 114.309C11.1719 114.851 11.6823 115.231 12.3281 115.45C12.9844 115.679 13.7135 115.794 14.5156 115.794ZM6.6875 134.213C6.6875 132.9 6.89583 131.723 7.3125 130.681C7.73958 129.64 8.32812 128.754 9.07812 128.025C9.82812 127.306 10.6979 126.754 11.6875 126.369C12.6875 125.983 13.75 125.791 14.875 125.791H15.5C16.7812 125.791 17.9531 125.973 19.0156 126.338C20.0781 126.702 21 127.223 21.7812 127.9C22.5625 128.588 23.1615 129.421 23.5781 130.4C24.0052 131.379 24.2187 132.483 24.2187 133.713C24.2187 134.91 24.0208 135.973 23.625 136.9C23.2292 137.827 22.6667 138.603 21.9375 139.228C21.2083 139.864 20.3333 140.343 19.3125 140.666C18.3021 140.989 17.1771 141.15 15.9375 141.15H14.0625V127.713H17.0625V136.728H17.4062C18.0312 136.728 18.5885 136.614 19.0781 136.384C19.5781 136.166 19.974 135.832 20.2656 135.384C20.5573 134.936 20.7031 134.364 20.7031 133.666C20.7031 133.072 20.5729 132.561 20.3125 132.134C20.0521 131.707 19.6875 131.358 19.2187 131.088C18.75 130.827 18.1979 130.629 17.5625 130.494C16.9375 130.369 16.25 130.306 15.5 130.306H14.875C14.1979 130.306 13.5729 130.4 13 130.588C12.4271 130.785 11.9323 131.061 11.5156 131.416C11.099 131.78 10.776 132.218 10.5469 132.728C10.3177 133.249 10.2031 133.838 10.2031 134.494C10.2031 135.306 10.3594 136.061 10.6719 136.759C10.9948 137.468 11.4792 138.077 12.125 138.588L9.75 140.775C9.23958 140.421 8.75 139.936 8.28125 139.322C7.8125 138.718 7.42708 137.989 7.125 137.134C6.83333 136.28 6.6875 135.306 6.6875 134.213ZM11.6719 156.053C11.9948 156.053 12.2865 155.959 12.5469 155.772C12.8073 155.584 13.0469 155.235 13.2656 154.725C13.4948 154.225 13.7031 153.501 13.8906 152.553C14.0781 151.699 14.3125 150.902 14.5937 150.163C14.8854 149.433 15.2344 148.798 15.6406 148.256C16.0469 147.725 16.526 147.308 17.0781 147.006C17.6406 146.704 18.2812 146.553 19 146.553C19.7083 146.553 20.375 146.704 21 147.006C21.625 147.319 22.1771 147.761 22.6562 148.334C23.1458 148.918 23.526 149.626 23.7969 150.459C24.0781 151.303 24.2187 152.251 24.2187 153.303C24.2187 154.772 23.9844 156.032 23.5156 157.084C23.0469 158.147 22.401 158.959 21.5781 159.522C20.7656 160.095 19.8385 160.381 18.7969 160.381V155.881C19.2344 155.881 19.625 155.788 19.9687 155.6C20.3229 155.423 20.599 155.142 20.7969 154.756C21.0052 154.381 21.1094 153.892 21.1094 153.288C21.1094 152.788 21.0208 152.355 20.8437 151.991C20.6771 151.626 20.4479 151.345 20.1562 151.147C19.875 150.959 19.5625 150.866 19.2187 150.866C18.9583 150.866 18.724 150.918 18.5156 151.022C18.3177 151.136 18.1354 151.319 17.9687 151.569C17.8021 151.819 17.6458 152.142 17.5 152.538C17.3646 152.944 17.2396 153.444 17.125 154.038C16.875 155.256 16.5469 156.345 16.1406 157.303C15.7448 158.261 15.2031 159.022 14.5156 159.584C13.8385 160.147 12.9479 160.428 11.8437 160.428C11.0937 160.428 10.4062 160.261 9.78125 159.928C9.15625 159.595 8.60937 159.116 8.14062 158.491C7.68229 157.866 7.32292 157.116 7.0625 156.241C6.8125 155.376 6.6875 154.402 6.6875 153.319C6.6875 151.746 6.96875 150.413 7.53125 149.319C8.09375 148.235 8.80729 147.413 9.67187 146.85C10.5469 146.298 11.4427 146.022 12.3594 146.022V150.288C11.7448 150.308 11.25 150.465 10.875 150.756C10.5 151.058 10.2292 151.439 10.0625 151.897C9.89583 152.366 9.8125 152.871 9.8125 153.413C9.8125 153.996 9.89062 154.48 10.0469 154.866C10.2135 155.251 10.4323 155.543 10.7031 155.741C10.9844 155.949 11.3073 156.053 11.6719 156.053ZM23.9062 174.831H20.7187V164.988H23.9062V174.831ZM28.0781 167.425V171.925H12.0937C11.6042 171.925 11.2292 171.988 10.9687 172.113C10.7083 172.248 10.526 172.446 10.4219 172.706C10.3281 172.967 10.2812 173.295 10.2812 173.691C10.2812 173.972 10.2917 174.222 10.3125 174.441C10.3437 174.67 10.375 174.863 10.4062 175.019L7.09375 175.034C6.96875 174.649 6.86979 174.232 6.79687 173.784C6.72396 173.336 6.6875 172.842 6.6875 172.3C6.6875 171.31 6.84896 170.446 7.17187 169.706C7.50521 168.977 8.03646 168.415 8.76562 168.019C9.49479 167.623 10.4531 167.425 11.6406 167.425H28.0781ZM23.9062 185.344H7V180.828H23.9062V185.344ZM28.3125 180.547C28.9687 180.547 29.5104 180.776 29.9375 181.234C30.3646 181.693 30.5781 182.307 30.5781 183.078C30.5781 183.839 30.3646 184.448 29.9375 184.906C29.5104 185.375 28.9687 185.609 28.3125 185.609C27.6562 185.609 27.1146 185.375 26.6875 184.906C26.2604 184.448 26.0469 183.839 26.0469 183.078C26.0469 182.307 26.2604 181.693 26.6875 181.234C27.1146 180.776 27.6562 180.547 28.3125 180.547ZM15.2812 191.544H15.6094C16.849 191.544 17.9896 191.721 19.0312 192.075C20.0833 192.429 20.9948 192.945 21.7656 193.622C22.5365 194.299 23.1354 195.132 23.5625 196.122C24 197.111 24.2187 198.247 24.2187 199.528C24.2187 200.809 24 201.95 23.5625 202.95C23.1354 203.95 22.5365 204.789 21.7656 205.466C20.9948 206.153 20.0833 206.674 19.0312 207.028C17.9896 207.382 16.849 207.559 15.6094 207.559H15.2812C14.0521 207.559 12.9115 207.382 11.8594 207.028C10.8177 206.674 9.90625 206.153 9.125 205.466C8.35417 204.789 7.75521 203.955 7.32812 202.966C6.90104 201.976 6.6875 200.841 6.6875 199.559C6.6875 198.278 6.90104 197.137 7.32812 196.137C7.75521 195.148 8.35417 194.309 9.125 193.622C9.90625 192.945 10.8177 192.429 11.8594 192.075C12.9115 191.721 14.0521 191.544 15.2812 191.544ZM15.6094 196.044H15.2812C14.5729 196.044 13.9115 196.106 13.2969 196.231C12.6823 196.356 12.1406 196.554 11.6719 196.825C11.2135 197.106 10.8542 197.471 10.5937 197.919C10.3333 198.367 10.2031 198.914 10.2031 199.559C10.2031 200.184 10.3333 200.721 10.5937 201.169C10.8542 201.617 11.2135 201.976 11.6719 202.247C12.1406 202.518 12.6823 202.716 13.2969 202.841C13.9115 202.976 14.5729 203.044 15.2812 203.044H15.6094C16.2969 203.044 16.9427 202.976 17.5469 202.841C18.1615 202.716 18.7031 202.512 19.1719 202.231C19.651 201.96 20.026 201.601 20.2969 201.153C20.5677 200.705 20.7031 200.164 20.7031 199.528C20.7031 198.893 20.5677 198.351 20.2969 197.903C20.026 197.466 19.651 197.106 19.1719 196.825C18.7031 196.554 18.1615 196.356 17.5469 196.231C16.9427 196.106 16.2969 196.044 15.6094 196.044ZM20.2969 217.931H7V213.431H23.9062V217.65L20.2969 217.931ZM16.0469 217.275V216.056C17.2969 216.056 18.4219 216.218 19.4219 216.541C20.4323 216.864 21.2917 217.317 22 217.9C22.7187 218.483 23.2656 219.176 23.6406 219.978C24.026 220.791 24.2187 221.697 24.2187 222.697C24.2187 223.489 24.1042 224.212 23.875 224.869C23.6458 225.525 23.2812 226.087 22.7812 226.556C22.2812 227.035 21.6198 227.4 20.7969 227.65C19.974 227.91 18.9687 228.041 17.7812 228.041H7V223.509H17.7969C18.5469 223.509 19.1302 223.405 19.5469 223.197C19.9635 222.989 20.2552 222.681 20.4219 222.275C20.599 221.879 20.6875 221.39 20.6875 220.806C20.6875 220.202 20.5677 219.676 20.3281 219.228C20.0885 218.791 19.7552 218.426 19.3281 218.134C18.9115 217.853 18.4219 217.64 17.8594 217.494C17.2969 217.348 16.6927 217.275 16.0469 217.275ZM23.9062 239.413H7V234.897H23.9062V239.413ZM28.3125 234.616C28.9687 234.616 29.5104 234.845 29.9375 235.303C30.3646 235.761 30.5781 236.376 30.5781 237.147C30.5781 237.907 30.3646 238.517 29.9375 238.975C29.5104 239.444 28.9687 239.678 28.3125 239.678C27.6562 239.678 27.1146 239.444 26.6875 238.975C26.2604 238.517 26.0469 237.907 26.0469 237.147C26.0469 236.376 26.2604 235.761 26.6875 235.303C27.1146 234.845 27.6562 234.616 28.3125 234.616ZM20.2969 250.738H7V246.238H23.9062V250.456L20.2969 250.738ZM16.0469 250.081V248.863C17.2969 248.863 18.4219 249.024 19.4219 249.347C20.4323 249.67 21.2917 250.123 22 250.706C22.7187 251.29 23.2656 251.982 23.6406 252.784C24.026 253.597 24.2187 254.503 24.2187 255.503C24.2187 256.295 24.1042 257.019 23.875 257.675C23.6458 258.331 23.2812 258.894 22.7812 259.363C22.2812 259.842 21.6198 260.206 20.7969 260.456C19.974 260.717 18.9687 260.847 17.7812 260.847H7V256.316H17.7969C18.5469 256.316 19.1302 256.211 19.5469 256.003C19.9635 255.795 20.2552 255.488 20.4219 255.081C20.599 254.685 20.6875 254.196 20.6875 253.613C20.6875 253.008 20.5677 252.482 20.3281 252.034C20.0885 251.597 19.7552 251.232 19.3281 250.941C18.9115 250.659 18.4219 250.446 17.8594 250.3C17.2969 250.154 16.6927 250.081 16.0469 250.081ZM23.9062 278.172V282.25H7.5625C6.02083 282.25 4.71354 281.906 3.64062 281.219C2.55729 280.542 1.73958 279.594 1.1875 278.375C0.625 277.156 0.34375 275.74 0.34375 274.125C0.34375 273.417 0.4375 272.667 0.625 271.875C0.8125 271.094 1.10417 270.344 1.5 269.625C1.89583 268.917 2.39583 268.323 3 267.844L5.65625 269.828C5.05208 270.349 4.58333 270.953 4.25 271.641C3.90625 272.328 3.73437 273.089 3.73437 273.922C3.73437 274.734 3.88542 275.422 4.1875 275.984C4.47917 276.547 4.91146 276.979 5.48437 277.281C6.04687 277.583 6.72917 277.734 7.53125 277.734H20L23.9062 278.172ZM15.25 266.797H15.5781C16.8698 266.797 18.0417 266.953 19.0937 267.266C20.1562 267.589 21.0677 268.042 21.8281 268.625C22.5885 269.219 23.1771 269.938 23.5937 270.781C24.0104 271.625 24.2187 272.578 24.2187 273.641C24.2187 274.766 24.0104 275.708 23.5937 276.469C23.1771 277.229 22.5833 277.854 21.8125 278.344C21.0521 278.833 20.151 279.214 19.1094 279.484C18.0781 279.766 16.9479 279.984 15.7187 280.141H15C13.8229 279.984 12.7292 279.75 11.7187 279.438C10.7083 279.125 9.82292 278.714 9.0625 278.203C8.3125 277.693 7.72917 277.057 7.3125 276.297C6.89583 275.547 6.6875 274.651 6.6875 273.609C6.6875 272.568 6.90104 271.625 7.32812 270.781C7.75521 269.948 8.35417 269.234 9.125 268.641C9.89583 268.047 10.8021 267.589 11.8437 267.266C12.8854 266.953 14.0208 266.797 15.25 266.797ZM15.5781 271.297H15.25C14.5521 271.297 13.901 271.365 13.2969 271.5C12.6927 271.635 12.1562 271.844 11.6875 272.125C11.2292 272.417 10.8698 272.776 10.6094 273.203C10.3594 273.641 10.2344 274.156 10.2344 274.75C10.2344 275.573 10.4062 276.245 10.75 276.766C11.1042 277.286 11.5885 277.677 12.2031 277.938C12.8177 278.198 13.526 278.349 14.3281 278.391H16.375C17.0312 278.37 17.6198 278.281 18.1406 278.125C18.6719 277.969 19.125 277.75 19.5 277.469C19.875 277.188 20.1667 276.823 20.375 276.375C20.5833 275.927 20.6875 275.396 20.6875 274.781C20.6875 274.188 20.5521 273.672 20.2812 273.234C20.0208 272.807 19.6615 272.448 19.2031 272.156C18.7448 271.875 18.2031 271.661 17.5781 271.516C16.9635 271.37 16.2969 271.297 15.5781 271.297Z" fill="#004982" fill-opacity="0.3"/>
</svg>
