<svg width="670" height="203" viewBox="0 0 670 203" fill="none" xmlns="http://www.w3.org/2000/svg">
<path d="M17.2469 104.018L17.6262 103.958C25.2749 104.154 29.0992 107.292 29.0992 113.372V115.1C29.0992 121.82 24.864 129.179 16.3936 137.177V137.561C30.1106 147.804 39.5924 152.511 44.839 151.68C45.7872 152.233 46.2613 153.022 46.2613 154.046C46.2613 155.518 45.1867 156.616 43.0374 157.341C37.7908 158.172 27.993 153.324 13.6438 142.796L9.56666 141.234L9.28221 141.279C11.0521 148.167 11.9371 153.563 11.9371 157.467C11.9371 159.131 10.9257 160.475 8.90293 161.499C5.99518 161.96 4.16203 155.05 3.40349 140.77C1.3807 134.435 0.369306 129.283 0.369306 125.315V124.451C0.369306 118.627 1.63355 115.515 4.16203 115.114L5.96357 115.789L6.53248 115.699C9.56666 108.562 13.1381 104.668 17.2469 104.018ZM9.56666 130.866L9.28221 134.463C15.1609 133.532 19.9018 127.853 23.5049 117.427V113.875C23.5049 111.059 21.6086 109.663 17.8158 109.688L17.2469 109.778C13.2646 110.408 10.7045 117.438 9.56666 130.866ZM58.8276 117.592C61.3561 117.256 65.6229 121.06 71.6281 129.005L71.8177 130.607C71.8177 132.399 67.4877 134.46 58.8276 136.792L58.5432 137.125V137.509C59.8706 143.059 61.2613 145.719 62.7152 145.488L63.853 145.308C65.8758 144.988 68.9415 142.294 73.0503 137.227L73.6192 137.137C74.8835 136.937 75.8633 137.71 76.5586 139.456C76.5586 140.992 73.9037 144.068 68.5939 148.685C67.2032 149.737 65.5281 150.611 63.5685 151.305C58.4483 152.116 54.8769 147.818 52.8541 138.41C49.9463 138.423 48.4924 137.437 48.4924 135.453C48.4924 134.045 49.5671 132.947 51.7163 132.158V132.542L52.6644 132.008V129.608C52.6644 122.248 54.7188 118.243 58.8276 117.592ZM59.3965 124.414L58.5432 124.549L58.1639 128.161V131.137L58.5432 131.077C62.083 130.388 63.853 129.724 63.853 129.084C62.2095 126.848 60.724 125.292 59.3965 124.414ZM97.9334 108.806C100.715 108.366 102.105 109.265 102.105 111.505L101.252 113.465L100.683 131.123C100.683 139.059 102.263 143.736 105.424 145.156L105.614 146.566C105.424 148.452 104.571 149.515 103.054 149.755L102.485 149.845C97.7438 147.332 95.3733 142.716 95.3733 135.996L94.7096 136.101C92.1811 143.669 89.1153 147.739 85.5122 148.31C82.162 147.88 80.4869 145.617 80.4869 141.521C80.4869 132.497 84.0584 122.94 91.2013 112.848C93.6034 110.484 95.8474 109.137 97.9334 108.806ZM86.4604 136.735L86.0811 139.483V141.307L87.0293 141.157C91.7702 128.438 94.1407 120.767 94.1407 118.143L93.7614 118.203C90.0951 122.944 87.6615 129.121 86.4604 136.735ZM113.293 90.5335C115.063 90.8931 115.948 91.745 115.948 93.089L116.896 129.515V141.323C116.896 143.499 115.98 144.732 114.147 145.022L112.914 145.218C111.776 144.63 111.207 143.824 111.207 142.8V131.664L110.354 93.783C110.354 92.183 111.334 91.0998 113.293 90.5335ZM124.86 91.5814C127.262 91.713 128.463 92.6108 128.463 94.2748C127.831 96.1669 126.82 97.2231 125.429 97.4433C123.09 97.3658 121.921 96.367 121.921 94.447C122.553 92.7469 123.533 91.7917 124.86 91.5814ZM128.463 104.451C129.475 104.291 130.328 105.083 131.023 106.829L130.17 113.78V118.292C130.17 123.54 131.055 130.28 132.825 138.512C132.193 139.828 131.118 140.606 129.601 140.847C127.009 141.257 125.303 133.847 124.481 118.618V115.258C124.481 108.474 125.808 104.871 128.463 104.451ZM152.212 108.273C153.413 108.083 154.298 108.839 154.866 110.541C149.241 125.896 146.27 134.367 145.954 135.953L146.333 136.181L149.272 135.715C152.306 135.234 156.447 133.171 161.693 129.524C163.463 129.243 164.348 130.223 164.348 132.463C160.808 137.44 155.277 140.524 147.755 141.715L143.393 141.83C141.94 143.02 140.928 143.661 140.359 143.751C138.4 144.061 137.42 142.392 137.42 138.744C137.42 137.976 138.495 136.622 140.644 134.682L147.186 115.981V115.597L146.902 115.642L138.842 117.591C136.693 117.483 135.618 116.566 135.618 114.838C135.618 113.238 136.503 112.297 138.273 112.017C141.687 111.476 146.333 110.229 152.212 108.273ZM175.776 99.0692C178.305 98.7327 182.571 102.537 188.577 110.482L188.766 112.084C188.766 113.876 184.436 115.938 175.776 118.269L175.492 118.602V118.986C176.819 124.536 178.21 127.196 179.664 126.965L180.801 126.785C182.824 126.465 185.89 123.771 189.999 118.704L190.568 118.614C191.832 118.414 192.812 119.187 193.507 120.933C193.507 122.469 190.852 125.545 185.542 130.162C184.152 131.215 182.477 132.088 180.517 132.782C175.397 133.593 171.825 129.295 169.803 119.887C166.895 119.9 165.441 118.914 165.441 116.93C165.441 115.522 166.516 114.424 168.665 113.635V114.019L169.613 113.485V111.085C169.613 103.725 171.667 99.7199 175.776 99.0692ZM176.345 105.891L175.492 106.026L175.112 109.638V112.614L175.492 112.554C179.032 111.866 180.801 111.201 180.801 110.561C179.158 108.326 177.672 106.769 176.345 105.891ZM235.927 95.2062C238.139 94.8558 239.657 99.5435 240.478 109.269C241.553 113.643 242.343 115.79 242.849 115.71L243.418 115.62C244.998 111.337 245.788 107.212 245.788 103.244L245.219 96.7104C245.915 94.8723 246.894 93.8531 248.159 93.6529C250.497 93.2825 251.667 97.2892 251.667 105.673C253.058 114.157 253.753 122.143 253.753 129.631V134.143C253.753 147.903 249.897 157.794 242.185 163.815L240.099 164.529C236.496 165.1 233.146 162.239 230.048 155.945L229.195 150.32V150.032C229.195 145.808 230.364 143.511 232.703 143.141L235.074 144.301L234.789 150.394C234.789 153.338 236.275 156.079 239.246 158.617L240.478 158.421C243.955 157.871 246.515 150.745 248.159 137.045L248.348 131.447C248.285 124.993 248.032 120.905 247.59 119.183C245.061 121.823 243.07 123.259 241.616 123.489C238.392 124 235.516 115.719 232.988 98.6477L232.703 98.5008C232.703 97.0288 233.778 95.9306 235.927 95.2062ZM273.157 81.9175C277.835 81.1766 281.375 84.136 283.777 90.7955L284.156 92.7514C284.156 99.5994 280.996 107.108 274.674 115.277C272.146 118.046 269.586 119.635 266.994 120.046C263.201 120.646 260.515 118.864 258.935 114.698C258.366 112.74 258.081 110.993 258.081 109.457V108.305C258.081 98.1933 261.716 89.9376 268.985 83.5383C270.249 82.698 271.64 82.1578 273.157 81.9175ZM263.675 108.379C263.675 112.731 264.782 114.732 266.994 114.382C271.609 113.651 275.433 107.061 278.467 94.6125V92.7885C277.392 88.9907 275.401 87.3221 272.494 87.7826C271.356 87.9628 270.787 88.8529 270.787 90.4529C270.787 91.5409 269.523 92.6052 266.994 93.6457C264.782 97.7721 263.675 102.683 263.675 108.379ZM292.15 86.2053L293.857 84.9749C295.374 84.7347 296.481 85.4875 297.176 87.2333C296.164 92.1295 295.659 97.0736 295.659 102.066C295.659 104.562 296.386 107.166 297.84 109.88L298.408 109.79C300.242 109.5 302.422 101.826 304.951 86.7699C305.836 85.8617 306.689 85.3425 307.511 85.2124C309.471 84.902 310.45 88.2668 310.45 95.3068C311.272 102.921 312.189 106.648 313.2 106.487L314.622 105.686C316.456 106.1 317.372 106.947 317.372 108.227C316.234 110.839 314.654 112.305 312.631 112.625C310.356 112.986 308.175 111.027 306.089 106.75C303.56 112.526 301 115.62 298.408 116.03C294.553 116.641 291.866 113.002 290.349 105.115L290.064 102.088V101.128C290.064 96.0077 290.76 91.0335 292.15 86.2053ZM331.893 70.9826C335.876 70.3519 338.246 72.7924 339.005 78.3043V79.1683C339.005 85.3763 335.844 91.5729 329.523 97.7581C333.189 100.825 339.605 101.633 348.771 100.181C350.162 100.409 350.857 101.291 350.857 102.827C350.857 104.555 349.751 105.594 347.538 105.945C341.344 106.926 334.833 106.357 328.006 104.238V107.022C328.006 113.614 326.615 117.131 323.834 117.571C321.874 117.881 320.894 114.229 320.894 106.613V99.1247L320.61 96.4817L321.274 93.3046L320.61 84.1937V83.8097C320.61 82.0817 321.495 80.7576 323.265 79.8372C325.73 74.4548 328.606 71.5032 331.893 70.9826ZM327.152 92.7575C328.986 92.4672 331.04 88.8138 333.316 81.7974V77.6693L332.178 76.6016L331.324 76.7367C328.543 79.0972 327.152 84.4375 327.152 92.7575ZM390.888 49.4468C393.29 49.5783 394.491 50.4761 394.491 52.1401C393.859 54.0322 392.848 55.0884 391.457 55.3087C389.118 55.2311 387.949 54.2323 387.949 52.3123C388.581 50.6122 389.56 49.657 390.888 49.4468ZM394.491 62.3161C395.502 62.1559 396.356 62.9488 397.051 64.6946L396.198 71.6458V76.1578C396.198 81.4058 397.083 88.1456 398.853 96.3773C398.221 97.6934 397.146 98.4716 395.629 98.7119C393.037 99.1224 391.33 91.7127 390.509 76.4829V73.1229C390.509 66.3389 391.836 62.7366 394.491 62.3161ZM426.014 41.1953C427.089 41.0251 428.069 41.8939 428.954 43.8018L424.782 71.1505V78.6385C424.782 86.4465 425.983 90.1603 428.385 89.7799C429.965 90.2976 430.755 91.1964 430.755 92.4764C430.755 93.9484 429.491 95.0127 426.963 95.6691C424.181 96.1097 422 93.8631 420.42 88.9294L419.472 89.0795C417.133 94.634 414.289 97.6765 410.938 98.2071C407.019 98.8279 404.649 96.1953 403.827 90.3095C403.827 83.3335 408.441 75.2106 417.67 65.9409C419.504 65.6505 420.42 62.9134 420.42 57.7294C421.811 47.0771 423.676 41.5657 426.014 41.1953ZM409.421 88.6554V91.2474L410.938 92.5431L411.507 92.453C413.53 92.1326 415.9 85.5812 418.619 72.7987L418.05 72.8888C412.297 79.6239 409.421 84.8794 409.421 88.6554ZM442.637 56.8025C445.166 56.466 449.432 60.2703 455.438 68.2151L455.627 69.8171C455.627 71.6091 451.297 73.6709 442.637 76.0025L442.353 76.3356V76.7196C443.68 82.2693 445.071 84.9291 446.525 84.6988L447.663 84.5186C449.685 84.1982 452.751 81.5046 456.86 76.4379L457.429 76.3478C458.693 76.1475 459.673 76.9203 460.368 78.6662C460.368 80.2022 457.713 83.2787 452.403 87.8957C451.013 88.948 449.338 89.8213 447.378 90.5156C442.258 91.3266 438.686 87.0283 436.664 77.6206C433.756 77.6332 432.302 76.6475 432.302 74.6634C432.302 73.2554 433.377 72.1572 435.526 71.3688V71.7528L436.474 71.2187V68.8187C436.474 61.4587 438.528 57.4533 442.637 56.8025ZM443.206 63.6244L442.353 63.7596L441.973 67.3716V70.3476L442.353 70.2876C445.893 69.5989 447.663 68.9346 447.663 68.2946C446.019 66.0589 444.534 64.5022 443.206 63.6244ZM481.743 48.0168C484.524 47.5763 485.915 48.476 485.915 50.716L485.062 52.6752L484.493 70.3333C484.493 78.2693 486.073 82.947 489.234 84.3664L489.423 85.7763C489.234 87.6624 488.38 88.7255 486.863 88.9658L486.294 89.0559C481.553 86.5428 479.183 81.9263 479.183 75.2062L478.519 75.3114C475.991 82.8798 472.925 86.9494 469.322 87.5201C465.972 87.0907 464.296 84.828 464.296 80.732C464.296 71.708 467.868 62.1504 475.011 52.059C477.413 49.6946 479.657 48.3472 481.743 48.0168ZM470.27 75.9459L469.891 78.694V80.518L470.839 80.3678C475.58 67.6489 477.95 59.9775 477.95 57.3535L477.571 57.4135C473.905 62.1542 471.471 68.3317 470.27 75.9459ZM497.103 29.744C498.873 30.1037 499.758 30.9555 499.758 32.2995L500.706 68.7253V80.5333C500.706 82.7093 499.789 83.9425 497.956 84.2329L496.723 84.4281C495.586 83.8403 495.017 83.0344 495.017 82.0104V70.8744L494.163 32.9936C494.163 31.3936 495.143 30.3104 497.103 29.744ZM547.256 21.7045C549.026 21.4241 549.911 23.46 549.911 27.812L551.049 44.1438L551.428 44.0837L556.169 41.5088C561.479 40.6678 564.703 45.6612 565.841 56.489C566.283 59.5549 566.504 64.1279 566.504 70.2079V77.9839C566.504 80.4159 565.619 81.772 563.849 82.0524L563.47 82.1124C561.763 82.1268 560.91 81.3339 560.91 79.7339V70.7099C560.91 56.2459 559.519 48.4662 556.738 47.3707L556.169 47.4608C554.273 47.7612 552.882 50.9254 551.997 56.9536V62.3296C551.997 71.9296 551.207 76.8547 549.627 77.105L547.825 77.5824C546.055 77.8627 545.17 75.3469 545.17 70.0349C545.36 64.3728 545.739 59.7048 546.308 56.0307L544.317 24.762C544.317 23.098 545.297 22.0788 547.256 21.7045ZM586.131 32.3473C590.809 31.6065 594.349 34.5658 596.751 41.2253L597.13 43.1813C597.13 50.0293 593.969 57.5379 587.648 65.707C585.12 68.4755 582.559 70.065 579.968 70.4755C576.175 71.0762 573.489 69.2937 571.908 65.128C571.339 63.1701 571.055 61.4231 571.055 59.8871V58.7351C571.055 48.6231 574.69 40.3675 581.959 33.9681C583.223 33.1279 584.614 32.5876 586.131 32.3473ZM576.649 58.8091C576.649 63.1611 577.755 65.1619 579.968 64.8115C584.582 64.0806 588.407 57.4909 591.441 45.0423V43.2183C590.366 39.4205 588.375 37.7519 585.467 38.2125C584.329 38.3927 583.761 39.2828 583.761 40.8828C583.761 41.9708 582.496 43.035 579.968 44.0755C577.755 48.2019 576.649 53.1131 576.649 58.8091ZM602.849 32.2915C603.291 30.6214 604.302 29.6612 605.883 29.411C607.463 29.1607 608.506 30.5955 609.012 33.7154L609.391 33.6553L613.753 32.0045C615.775 31.6841 617.735 33.2937 619.631 36.8334L620.011 36.7733C622.792 31.9168 625.637 29.2583 628.544 28.7977C634.739 28.9686 637.836 32.574 637.836 39.614L638.026 42.944L637.173 62.4711V64.2951C637.173 65.8951 636.193 66.9783 634.233 67.5447C632.274 67.855 631.294 65.6742 631.294 61.0022L632.432 43.446C632.432 37.046 630.946 34.0813 627.975 34.5518C626.269 34.8221 624.214 39.3395 621.812 48.104C620.611 57.8942 619.631 62.8494 618.873 62.9695C617.798 63.1397 617.261 63.4488 617.261 63.8968C615.301 63.9512 614.322 63.0824 614.322 61.2904L615.554 49.4791C615.365 41.5092 614.574 37.6343 613.184 37.8546L612.899 37.8996C611.319 39.3659 610.529 41.8911 610.529 45.4751V50.5631L610.15 65.3112C609.707 66.9812 608.727 67.9364 607.21 68.1767C605.883 68.387 605.029 67.4021 604.65 65.2222L604.271 53.9543L604.84 44.5521C604.46 39.8122 603.797 35.7253 602.849 32.2915ZM651.811 23.6726C654.34 23.3362 658.606 27.1404 664.611 35.0852L664.801 36.6872C664.801 38.4792 660.471 40.541 651.811 42.8726L651.527 43.2057V43.5897C652.854 49.1394 654.245 51.7992 655.699 51.5689L656.836 51.3887C658.859 51.0683 661.925 48.3747 666.034 43.308L666.603 43.2179C667.867 43.0176 668.847 43.7905 669.542 45.5363C669.542 47.0723 666.887 50.1488 661.577 54.7658C660.187 55.8181 658.511 56.6914 656.552 57.3857C651.432 58.1967 647.86 53.8984 645.837 44.4907C642.93 44.5033 641.476 43.5176 641.476 41.5336C641.476 40.1256 642.55 39.0274 644.7 38.239V38.623L645.648 38.0888V35.6888C645.648 28.3288 647.702 24.3234 651.811 23.6726ZM652.38 30.4945L651.527 30.6297L651.147 34.2418V37.2178L651.527 37.1577C655.066 36.469 656.836 35.8047 656.836 35.1647C655.193 32.929 653.707 31.3723 652.38 30.4945Z" fill="#4CB6E9" fill-opacity="0.2"/>
</svg>
