<svg width="870" height="242" viewBox="0 0 870 242" fill="none" xmlns="http://www.w3.org/2000/svg">
<path d="M23.5181 139.77C28.6383 138.959 34.9595 141.35 42.4817 146.942C52.7221 157.352 57.8423 169.021 57.8423 181.949C57.8423 194.813 51.6159 204.6 39.1631 211.308L36.5082 212.112C29.8077 213.174 24.5611 209.077 20.7684 199.821L20.5788 199.851C18.3663 208.202 15.3954 212.672 11.6659 213.263L11.097 213.353C6.16642 214.134 2.78458 205.262 0.951425 186.736V181.168C1.07785 174.492 2.94261 170.389 6.54569 168.858C7.55709 168.698 8.47366 169.545 9.29542 171.399C7.46227 174.249 6.54569 177.402 6.54569 180.858V181.722C6.54569 193.562 8.25242 202.092 11.6659 207.311C14.1944 205.055 16.0591 197.143 17.2601 183.577C17.2601 172.761 18.0503 167.228 19.6306 166.978L20.5788 166.635C22.6648 166.305 23.7078 168.22 23.7078 172.38L23.1389 183.03C23.1389 190.134 25.3197 197.181 29.6813 204.17C31.8305 206.005 34.0113 206.748 36.2238 206.397C39.8268 205.827 43.6828 202.944 47.7916 197.749C50.6993 193.385 52.1532 188.227 52.1532 182.275C52.1532 169.091 46.4325 157.901 34.9911 148.705C32.0202 146.743 27.4689 145.48 21.3373 144.915L20.5788 143.211C21.0213 141.157 22.001 140.01 23.5181 139.77ZM70.0471 166.672C72.5756 166.336 76.8424 170.14 82.8476 178.085L83.0372 179.687C83.0372 181.479 78.7072 183.541 70.0471 185.872L69.7627 186.205V186.589C71.0901 192.139 72.4808 194.799 73.9347 194.569L75.0725 194.388C77.0953 194.068 80.1611 191.375 84.2699 186.308L84.8388 186.218C86.103 186.017 87.0828 186.79 87.7781 188.536C87.7781 190.072 85.1232 193.149 79.8134 197.766C78.4227 198.818 76.7476 199.691 74.788 200.386C69.6679 201.196 66.0964 196.898 64.0736 187.491C61.1658 187.503 59.712 186.517 59.712 184.533C59.712 183.125 60.7866 182.027 62.9358 181.239V181.623L63.884 181.089V178.689C63.884 171.329 65.9384 167.323 70.0471 166.672ZM70.616 173.494L69.7627 173.629L69.3834 177.242V180.218L69.7627 180.157C73.3026 179.469 75.0725 178.804 75.0725 178.164C73.429 175.929 71.9435 174.372 70.616 173.494ZM138.827 161.731C145.527 160.67 149.478 164.3 150.679 172.622C150.679 180.174 147.202 186.132 140.249 190.498C139.49 191.002 138.447 191.359 137.12 191.569L136.456 191.674L134.37 191.813V192.005L134.749 217.577C134.307 219.631 133.295 220.783 131.715 221.033C129.945 220.737 129.06 219.95 129.06 218.67L128.207 166.581C128.207 164.917 129.187 163.898 131.146 163.523L133.137 164.072C134.907 162.832 136.804 162.051 138.827 161.731ZM134.086 172.658L133.801 175.679L134.086 185.81L136.741 186.061C140.976 185.39 143.725 181.819 144.99 175.347V173.907C144.547 168.921 142.777 166.673 139.68 167.164L138.258 167.389C135.476 167.829 134.086 169.586 134.086 172.658ZM167.644 147.855C171.626 147.224 173.997 149.664 174.755 155.176V156.04C174.755 162.248 171.595 168.445 165.273 174.63C168.94 177.697 175.356 178.505 184.521 177.053C185.912 177.281 186.607 178.163 186.607 179.699C186.607 181.427 185.501 182.466 183.289 182.817C177.094 183.798 170.583 183.229 163.756 181.11V183.894C163.756 190.486 162.366 194.003 159.584 194.443C157.625 194.753 156.645 191.101 156.645 183.485V175.997L156.36 173.354L157.024 170.177L156.36 161.066V160.682C156.36 158.954 157.245 157.63 159.015 156.709C161.481 151.327 164.357 148.375 167.644 147.855ZM162.903 169.629C164.736 169.339 166.79 165.686 169.066 158.669V154.541L167.928 153.474L167.075 153.609C164.294 155.969 162.903 161.309 162.903 169.629ZM204.93 143.581C209.607 142.84 213.147 145.8 215.549 152.459L215.928 154.415C215.928 161.263 212.768 168.772 206.447 176.941C203.918 179.709 201.358 181.299 198.766 181.709C194.974 182.31 192.287 180.527 190.707 176.362C190.138 174.404 189.853 172.657 189.853 171.121V169.969C189.853 159.857 193.488 151.601 200.758 145.202C202.022 144.362 203.412 143.821 204.93 143.581ZM195.448 170.043C195.448 174.395 196.554 176.396 198.766 176.045C203.381 175.314 207.205 168.725 210.239 156.276V154.452C209.165 150.654 207.174 148.986 204.266 149.446C203.128 149.626 202.559 150.517 202.559 152.117C202.559 153.205 201.295 154.269 198.766 155.309C196.554 159.436 195.448 164.347 195.448 170.043ZM221.552 144.788C223.006 144.558 224.587 147.828 226.293 154.597C228.695 159.849 230.054 162.61 230.37 162.88C230.687 162.83 231.856 159.444 233.879 152.724C235.901 146.004 237.829 142.498 239.663 142.208C241.369 142.578 242.223 143.466 242.223 144.874C236.976 159.401 234.353 168.873 234.353 173.289L232.551 175.398L230.75 175.684C228.474 174.38 224.618 166.191 219.182 151.116L218.329 147.699C218.771 146.029 219.846 145.059 221.552 144.788ZM254.776 137.414C257.304 137.078 261.571 140.882 267.576 148.827L267.766 150.429C267.766 152.221 263.436 154.283 254.776 156.614L254.491 156.947V157.331C255.819 162.881 257.209 165.541 258.663 165.311L259.801 165.13C261.824 164.81 264.89 162.116 268.998 157.05L269.567 156.96C270.832 156.759 271.811 157.532 272.507 159.278C272.507 160.814 269.852 163.89 264.542 168.507C263.151 169.56 261.476 170.433 259.517 171.127C254.396 171.938 250.825 167.64 248.802 158.232C245.894 158.245 244.441 157.259 244.441 155.275C244.441 153.867 245.515 152.769 247.664 151.981V152.365L248.613 151.83V149.43C248.613 142.07 250.667 138.065 254.776 137.414ZM255.345 144.236L254.491 144.371L254.112 147.983V150.959L254.491 150.899C258.031 150.211 259.801 149.546 259.801 148.906C258.158 146.671 256.672 145.114 255.345 144.236ZM327.063 124.237C331.741 123.496 335.281 126.455 337.683 133.115L338.062 135.071C338.062 141.919 334.902 149.428 328.58 157.597C326.052 160.365 323.492 161.955 320.9 162.365C317.108 162.966 314.421 161.183 312.841 157.018C312.272 155.06 311.987 153.313 311.987 151.777V150.625C311.987 140.513 315.622 132.257 322.891 125.858C324.156 125.018 325.546 124.477 327.063 124.237ZM317.582 150.699C317.582 155.051 318.688 157.052 320.9 156.701C325.515 155.97 329.339 149.381 332.373 136.932V135.108C331.299 131.31 329.307 129.642 326.4 130.102C325.262 130.282 324.693 131.172 324.693 132.772C324.693 133.86 323.429 134.925 320.9 135.965C318.688 140.092 317.582 145.003 317.582 150.699ZM346.057 128.525L347.763 127.294C349.28 127.054 350.387 127.807 351.082 129.553C350.071 134.449 349.565 139.393 349.565 144.385C349.565 146.881 350.292 149.486 351.746 152.2L352.315 152.11C354.148 151.819 356.329 144.146 358.857 129.089C359.742 128.181 360.595 127.662 361.417 127.532C363.377 127.222 364.357 130.586 364.357 137.626C365.178 145.24 366.095 148.967 367.106 148.807L368.529 148.006C370.362 148.419 371.278 149.266 371.278 150.546C370.14 153.158 368.56 154.625 366.537 154.945C364.262 155.305 362.081 153.347 359.995 149.069C357.466 154.846 354.906 157.939 352.315 158.35C348.459 158.96 345.772 155.322 344.255 147.434L343.971 144.407V143.447C343.971 138.327 344.666 133.353 346.057 128.525ZM385.8 113.302C389.782 112.671 392.152 115.112 392.911 120.624V121.488C392.911 127.696 389.75 133.892 383.429 140.078C387.095 143.145 393.511 143.953 402.677 142.501C404.068 142.729 404.763 143.611 404.763 145.147C404.763 146.875 403.657 147.914 401.444 148.264C395.25 149.245 388.739 148.677 381.912 146.558V149.342C381.912 155.934 380.521 159.45 377.74 159.891C375.78 160.201 374.801 156.548 374.801 148.932V141.444L374.516 138.801L375.18 135.624L374.516 126.513V126.129C374.516 124.401 375.401 123.077 377.171 122.157C379.636 116.774 382.512 113.823 385.8 113.302ZM381.059 135.077C382.892 134.787 384.946 131.133 387.222 124.117V119.989L386.084 118.921L385.231 119.056C382.449 121.417 381.059 126.757 381.059 135.077ZM470.49 107.569C474.851 109.822 477.032 114.02 477.032 120.164C477.032 128.484 474.283 134.584 468.783 138.463L465.18 139.61C463.031 139.95 460.755 139.254 458.353 137.523L457.689 137.628C455.73 140.498 453.897 142.069 452.19 142.339C447.702 143.05 445.11 139.172 444.415 130.706V125.522C444.857 117.324 446.532 112.995 449.44 112.534C451.021 112.284 451.937 113.131 452.19 115.075C450.736 117.865 450.009 121.564 450.009 126.172V127.996C450.262 133.716 450.862 136.501 451.811 136.351C452.759 136.201 453.739 134.382 454.75 130.893L454.56 124.299C454.56 119.883 455.603 117.51 457.689 117.18C460.091 116.799 461.292 119.009 461.292 123.809L461.672 123.749L460.724 129.947C461.798 132.977 463.284 134.342 465.18 134.042L465.749 133.951C468.53 133.511 470.332 130.218 471.154 124.071V118.695C471.154 116.647 469.953 114.31 467.55 111.682L467.171 110.878C467.171 109.534 468.277 108.431 470.49 107.569ZM496.791 97.3547C501.469 96.6139 505.009 99.5732 507.411 106.233L507.79 108.189C507.79 115.037 504.63 122.545 498.309 130.714C495.78 133.483 493.22 135.072 490.628 135.483C486.836 136.084 484.149 134.301 482.569 130.135C482 128.178 481.715 126.431 481.715 124.895V123.743C481.715 113.631 485.35 105.375 492.619 98.9755C493.884 98.1353 495.274 97.595 496.791 97.3547ZM487.31 123.817C487.31 128.169 488.416 130.169 490.628 129.819C495.243 129.088 499.067 122.498 502.101 110.05V108.226C501.027 104.428 499.036 102.759 496.128 103.22C494.99 103.4 494.421 104.29 494.421 105.89C494.421 106.978 493.157 108.042 490.628 109.083C488.416 113.209 487.31 118.121 487.31 123.817ZM524.508 91.3329C528.49 90.7021 530.861 93.1427 531.619 98.6545V99.5185C531.619 105.727 528.459 111.923 522.138 118.108C525.804 121.176 532.22 121.983 541.386 120.532C542.776 120.759 543.472 121.641 543.472 123.177C543.472 124.905 542.365 125.945 540.153 126.295C533.958 127.276 527.447 126.707 520.62 124.589V127.373C520.62 133.965 519.23 137.481 516.448 137.921C514.489 138.232 513.509 134.579 513.509 126.963V119.475L513.225 116.832L513.888 113.655L513.225 104.544V104.16C513.225 102.432 514.11 101.108 515.88 100.187C518.345 94.805 521.221 91.8535 524.508 91.3329ZM519.767 113.108C521.6 112.817 523.655 109.164 525.93 102.148V98.0196L524.792 96.9518L523.939 97.087C521.158 99.4475 519.767 104.788 519.767 113.108ZM551.459 74.1043L552.027 74.0142C552.849 73.8841 553.639 74.4629 554.398 75.7508L554.019 82.3388V85.9868L554.398 102.727L554.682 103.642L554.967 103.597C557.685 100.606 560.055 95.7187 562.078 88.9343L564.164 87.932C565.934 87.9076 566.819 88.5675 566.819 89.9115C566.819 94.0715 563.88 100.137 558.001 108.108V108.78C565.776 116.701 570.896 120.466 573.362 120.075L573.93 119.985L576.301 118.17L577.154 118.035C578.482 117.824 579.461 118.565 580.094 120.257C580.094 122.305 577.85 124.068 573.362 125.547C568.873 126.258 563.026 122.576 555.82 114.502L554.967 114.637L555.251 119.776V124.768C554.872 126.812 553.892 127.959 552.312 128.209C550.542 128.105 549.657 127.254 549.657 125.654V125.078L549.278 114.098C548.582 114.208 548.108 113.291 547.855 111.347L549.088 108.752L548.519 87.2419V83.0179C548.519 77.3859 549.499 74.4147 551.459 74.1043ZM619.522 64.0921C621.924 64.2236 623.125 65.1214 623.125 66.7854C622.493 68.6775 621.482 69.7337 620.091 69.954C617.752 69.8764 616.583 68.8776 616.583 66.9576C617.215 65.2575 618.195 64.3023 619.522 64.0921ZM623.125 76.9614C624.137 76.8012 624.99 77.5941 625.686 79.3399L624.832 86.2911V90.8031C624.832 96.0511 625.717 102.791 627.487 111.023C626.855 112.339 625.78 113.117 624.263 113.357C621.672 113.768 619.965 106.358 619.143 91.1281V87.7681C619.143 80.9841 620.471 77.3819 623.125 76.9614ZM651.425 70.1752C653.132 69.9049 654.301 72.6317 654.933 78.3555C654.301 80.0557 653.258 81.0209 651.804 81.2511C650.793 81.2193 649.781 80.1955 648.77 78.1797L647.063 77.874C644.092 78.3446 641.406 80.7541 639.004 85.1025V85.9665C639.004 86.9265 643.46 87.8207 652.373 88.649C656.103 90.2983 657.967 92.723 657.967 95.923C657.967 101.171 653.795 106.312 645.451 111.345L641.943 112.477C636.633 112.742 633.978 110.474 633.978 105.674V105.386C633.978 103.85 634.958 102.799 636.918 102.233C638.435 101.993 639.446 103.432 639.952 106.552L640.711 107.008L642.322 106.753C645.926 106.182 649.276 103.156 652.373 97.673V96.425C652.373 94.505 648.233 93.3688 639.952 93.0163C635.59 91.9152 633.41 89.7646 633.41 86.5646C633.41 82.4046 636.855 77.9549 643.745 73.2156C646.779 72.3511 649.339 71.3376 651.425 70.1752ZM709.7 62.0014C713.682 61.3707 716.052 63.8112 716.811 69.3231V70.1871C716.811 76.3951 713.65 82.5917 707.329 88.7769C710.995 91.8442 717.411 92.652 726.577 91.2003C727.968 91.428 728.663 92.3099 728.663 93.8459C728.663 95.5739 727.557 96.6131 725.345 96.9635C719.15 97.9446 712.639 97.3759 705.812 95.2571V98.0411C705.812 104.633 704.421 108.149 701.64 108.59C699.68 108.9 698.701 105.247 698.701 97.6315V90.1435L698.416 87.5005L699.08 84.3234L698.416 75.2125V74.8285C698.416 73.1005 699.301 71.7764 701.071 70.856C703.536 65.4736 706.413 62.522 709.7 62.0014ZM704.959 83.7763C706.792 83.486 708.846 79.8326 711.122 72.8161V68.6881L709.984 67.6204L709.131 67.7555C706.349 70.116 704.959 75.4563 704.959 83.7763ZM740.348 60.5072C742.877 60.1707 747.143 63.9749 753.148 71.9198L753.338 73.5217C753.338 75.3137 749.008 77.3756 740.348 79.7072L740.064 80.0402V80.4242C741.391 85.974 742.782 88.6337 744.236 88.4034L745.373 88.2232C747.396 87.9029 750.462 85.2093 754.571 80.1425L755.14 80.0524C756.404 79.8522 757.384 80.625 758.079 82.3709C758.079 83.9069 755.424 86.9834 750.114 91.6003C748.724 92.6526 747.048 93.5259 745.089 94.2203C739.969 95.0312 736.397 90.7329 734.374 81.3253C731.467 81.3378 730.013 80.3521 730.013 78.3681C730.013 76.9601 731.087 75.8619 733.237 75.0735V75.4575L734.185 74.9233V72.5233C734.185 65.1633 736.239 61.1579 740.348 60.5072ZM740.917 67.3291L740.064 67.4642L739.684 71.0763V74.0523L740.064 73.9922C743.603 73.3036 745.373 72.6392 745.373 71.9992C743.73 69.7635 742.244 68.2068 740.917 67.3291ZM767.127 37.8337C768.897 38.1934 769.782 39.0452 769.782 40.3892L770.731 76.8151V88.6231C770.731 90.7991 769.814 92.0322 767.981 92.3226L766.748 92.5178C765.61 91.93 765.041 91.1241 765.041 90.1001V78.9641L764.188 41.0833C764.188 39.4833 765.168 38.4001 767.127 37.8337ZM778.695 38.8817C781.097 39.0132 782.298 39.911 782.298 41.575C781.665 43.4671 780.654 44.5233 779.263 44.7436C776.925 44.666 775.755 43.6672 775.755 41.7472C776.387 40.0471 777.367 39.0919 778.695 38.8817ZM782.298 51.751C783.309 51.5908 784.162 52.3837 784.858 54.1295L784.004 61.0807V65.5927C784.004 70.8407 784.889 77.5805 786.659 85.8122C786.027 87.1283 784.953 87.9065 783.435 88.1468C780.844 88.5573 779.137 81.1476 778.315 65.9178V62.5578C778.315 55.7738 779.643 52.1715 782.298 51.751ZM809.27 46.9991C812.051 46.5585 813.442 47.4583 813.442 49.6983L812.588 51.6574L812.019 69.3155C812.019 77.2515 813.6 81.9293 816.76 83.3487L816.95 84.7586C816.76 86.6447 815.907 87.7078 814.39 87.9481L813.821 88.0382C809.08 85.5251 806.71 80.9085 806.71 74.1885L806.046 74.2937C803.517 81.8621 800.452 85.9317 796.848 86.5024C793.498 86.073 791.823 83.8103 791.823 79.7143C791.823 70.6903 795.395 61.1327 802.538 51.0413C804.94 48.6769 807.184 47.3294 809.27 46.9991ZM797.797 74.9282L797.417 77.6763V79.5003L798.366 79.3501C803.106 66.6312 805.477 58.9598 805.477 56.3358L805.098 56.3958C801.431 61.1365 798.998 67.314 797.797 74.9282ZM819.983 36.7582C823.27 36.2376 825.388 42.4302 826.336 55.336L826.905 58.2219C829.813 51.7453 832.183 48.3619 834.016 48.0716C834.016 47.8156 834.68 47.5184 836.008 47.1802L836.387 47.1201C840.559 46.4593 843.214 49.3348 844.352 55.7466V56.0346C844.352 61.6666 841.57 68.3151 836.008 75.9802C833.669 78.9106 831.109 80.5961 828.327 81.0366C825.167 80.8332 823.586 79.4835 823.586 76.9875L818.846 43.2744L817.423 39.9477C817.423 38.7957 818.277 37.7325 819.983 36.7582ZM829.844 74.1723L830.129 74.1273C833.416 72.2627 836.292 67.2311 838.757 59.0327V55.3847C838.188 53.4908 837.461 52.6139 836.577 52.7541L835.818 52.8742C833.037 54.9787 831.045 62.0781 829.844 74.1723ZM854.538 23.9893C856.308 24.3489 857.193 25.2008 857.193 26.5448L858.141 62.9706V74.7786C858.141 76.9546 857.224 78.1878 855.391 78.4781L854.159 78.6733C853.021 78.0856 852.452 77.2797 852.452 76.2557V65.1197L851.599 27.2388C851.599 25.6388 852.578 24.5556 854.538 23.9893ZM873.501 39.4179C876.029 39.0814 880.296 42.8856 886.301 50.8305L886.491 52.4324C886.491 54.2244 882.161 56.2862 873.501 58.6179L873.216 58.9509V59.3349C874.544 64.8847 875.934 67.5444 877.388 67.3141L878.526 67.1339C880.549 66.8135 883.615 64.12 887.723 59.0532L888.292 58.9631C889.557 58.7629 890.536 59.5357 891.232 61.2815C891.232 62.8175 888.577 65.894 883.267 70.511C881.876 71.5633 880.201 72.4366 878.242 73.131C873.121 73.9419 869.55 69.6436 867.527 60.236C864.619 60.2485 863.166 59.2628 863.166 57.2788C863.166 55.8708 864.24 54.7726 866.389 53.9842V54.3682L867.338 53.834V51.434C867.338 44.074 869.392 40.0686 873.501 39.4179ZM874.07 46.2397L873.216 46.3749L872.837 49.987V52.963L873.216 52.9029C876.756 52.2142 878.526 51.5499 878.526 50.9099C876.883 48.6742 875.397 47.1175 874.07 46.2397ZM902.556 63.616C903.883 63.4057 904.673 64.3686 904.926 66.5045C904.547 68.8046 903.441 70.0998 901.608 70.3902C900.343 70.5904 899.458 69.6106 898.953 67.4507C899.711 65.1545 900.912 63.8763 902.556 63.616Z" fill="#4CB6E9" fill-opacity="0.2"/>
</svg>
