<svg width="163" height="101" viewBox="0 0 163 101" fill="none" xmlns="http://www.w3.org/2000/svg">
<path d="M9.70497 56.9137L13.5925 55.722C15.1728 55.4717 16.0578 56.3235 16.2474 58.2775C16.2474 60.0055 14.193 61.4509 10.0842 62.6136C7.49254 65.0721 6.1967 67.9014 6.1967 71.1014V74.2694C7.46094 81.1091 9.61015 84.2887 12.6443 83.8082L13.5925 83.658C15.3624 83.3777 18.0174 81.2612 21.5572 77.3085L22.1261 77.2184C23.3904 77.0182 24.4018 77.754 25.1603 79.4258C24.2753 82.318 21.4308 85.2645 16.6267 88.2654C15.7417 88.7896 14.6355 89.1568 13.3081 89.367C6.79721 90.3983 2.562 85.8851 0.60243 75.8274V73.7154C0.60243 66.2274 3.63661 60.6268 9.70497 56.9137ZM33.9243 32.6297C35.6943 32.3494 36.5792 34.3852 36.5792 38.7372L37.717 55.069L38.0963 55.009L42.8372 52.4341C48.147 51.5931 51.3708 56.5865 52.5087 67.4143C52.9511 70.4802 53.1724 75.0532 53.1724 81.1332V88.9092C53.1724 91.3412 52.2874 92.6973 50.5175 92.9776L50.1382 93.0377C48.4315 93.052 47.5781 92.2592 47.5781 90.6592V81.6352C47.5781 67.1712 46.1875 59.3915 43.4061 58.296L42.8372 58.3861C40.9409 58.6864 39.5502 61.8507 38.6652 67.8789V73.2549C38.6652 82.8549 37.8751 87.78 36.2948 88.0303L34.4932 88.5076C32.7233 88.788 31.8383 86.2721 31.8383 80.9601C32.028 75.2981 32.4072 70.63 32.9761 66.9559L30.985 35.6873C30.985 34.0233 31.9647 33.0041 33.9243 32.6297ZM66.1617 46.0518C68.6902 45.7154 72.957 49.5196 78.9622 57.4645L79.1518 59.0664C79.1518 60.8584 74.8218 62.9202 66.1617 65.2518L65.8773 65.5849V65.9689C67.2047 71.5186 68.5954 74.1784 70.0493 73.9481L71.1871 73.7679C73.2099 73.4475 76.2757 70.754 80.3844 65.6872L80.9533 65.5971C82.2176 65.3968 83.1974 66.1697 83.8927 67.9155C83.8927 69.4515 81.2378 72.528 75.928 77.145C74.5373 78.1973 72.8622 79.0706 70.9026 79.765C65.7825 80.5759 62.211 76.2776 60.1882 66.87C57.2804 66.8825 55.8266 65.8968 55.8266 63.9128C55.8266 62.5048 56.9012 61.4066 59.0504 60.6182V61.0022L59.9986 60.468V58.068C59.9986 50.708 62.0529 46.7026 66.1617 46.0518ZM66.7306 52.8737L65.8773 53.0089L65.498 56.621V59.597L65.8773 59.5369C69.4171 58.8482 71.1871 58.1839 71.1871 57.5439C69.5436 55.3082 68.0581 53.7515 66.7306 52.8737ZM97.208 43.0546L101.096 41.8629C102.676 41.6126 103.561 42.4644 103.75 44.4184C103.75 46.1464 101.696 47.5918 97.5873 48.7545C94.9956 51.213 93.6997 54.0423 93.6997 57.2423V60.4103C94.964 67.25 97.1132 70.4296 100.147 69.9491L101.096 69.7989C102.865 69.5185 105.52 67.402 109.06 63.4494L109.629 63.3593C110.893 63.159 111.905 63.8949 112.663 65.5667C111.778 68.4589 108.934 71.4054 104.13 74.4063C103.245 74.9305 102.139 75.2977 100.811 75.5079C94.3002 76.5391 90.065 72.0259 88.1054 61.9683V59.8563C88.1054 52.3683 91.1396 46.7677 97.208 43.0546ZM122.281 20.8435L122.85 20.7534C123.671 20.6232 124.462 21.2021 125.22 22.4899L124.841 29.078V32.726L125.22 49.4659L125.505 50.3809L125.789 50.3358C128.507 47.3453 130.878 42.4579 132.9 35.6735L134.986 34.6711C136.756 34.6468 137.641 35.3066 137.641 36.6506C137.641 40.8106 134.702 46.8762 128.823 54.8473V55.5193C136.598 63.4398 141.718 67.2048 144.184 66.8144L144.753 66.7243L147.123 64.9088L147.976 64.7737C149.304 64.5634 150.284 65.3042 150.916 66.9961C150.916 69.0441 148.672 70.8075 144.184 72.2864C139.696 72.9972 133.849 69.3153 126.642 61.2407L125.789 61.3758L126.073 66.5148V71.5068C125.694 73.5508 124.714 74.698 123.134 74.9483C121.364 74.8446 120.479 73.9928 120.479 72.3928V71.8168L120.1 60.8369C119.405 60.947 118.93 60.0301 118.678 58.0861L119.91 55.4909L119.341 33.981V29.757C119.341 24.125 120.321 21.1538 122.281 20.8435ZM155.93 1.11394C157.637 1.54762 158.49 2.43646 158.49 3.78047C158.996 21.8764 159.723 34.8812 160.671 42.7951C160.039 44.4952 159.122 45.4403 157.921 45.6306C155.582 46.001 154.413 42.3782 154.413 34.7622C153.844 32.0363 153.37 21.9034 152.991 4.36349C152.991 2.76349 153.97 1.68031 155.93 1.11394ZM156.499 67.0718C157.068 64.9977 158.079 63.8455 159.533 63.6153C161.05 63.375 162.093 64.2018 162.662 66.0957C161.967 68.0618 160.987 69.145 159.723 69.3452L159.438 69.3903C158.174 69.5905 157.194 68.8177 156.499 67.0718Z" fill="#4CB6E9" fill-opacity="0.2"/>
</svg>
