<svg width="1092" height="278" viewBox="0 0 1092 278" fill="none" xmlns="http://www.w3.org/2000/svg">
<path d="M30.5706 175.938C31.7084 175.758 32.4985 176.625 32.941 178.539C32.941 179.691 30.9498 181.606 26.9675 184.285C22.0369 189.418 18.3706 197.487 15.9686 208.491V210.219C21.468 206.596 25.4188 204.306 27.8208 203.35C28.5794 203.23 29.496 203.757 30.5706 204.93V206.754C30.5706 207.458 27.7892 209.307 22.2266 212.3C18.0546 215.265 15.9686 216.907 15.9686 217.227V218.091C15.9686 221.675 18.2442 224.419 22.7955 226.322L26.0193 226.387C28.1053 226.057 31.2027 224.254 35.3115 220.979L36.4493 220.799C37.7767 221.229 38.4405 222.052 38.4405 223.268V223.844C34.5213 228.625 30.1913 231.39 25.4504 232.141C18.6867 233.213 13.7562 229.386 10.6588 220.66L4.68523 222.854C1.77747 222.867 0.323597 222.137 0.323597 220.665C0.323597 219.193 1.17696 218.002 2.88369 217.092L5.0645 217.13C8.35153 215.65 9.99504 214.685 9.99504 214.237C9.99504 203.357 14.0722 192.631 22.2266 182.06C26.3354 178.209 29.1167 176.169 30.5706 175.938ZM55.6677 199.611L55.8574 199.581C57.1216 199.381 57.9118 200.28 58.2278 202.278C56.6475 208.992 55.8574 214.109 55.8574 217.629C57.5009 220.185 59.8713 221.218 62.9687 220.727C63.7905 221.365 64.2014 222.1 64.2014 222.932V224.084C63.6324 225.39 62.3682 226.198 60.4086 226.508C58.6387 226.661 56.932 226.195 55.2885 225.111L54.4351 225.247C53.7398 232.205 52.8232 235.774 51.6854 235.954L49.9786 236.224C48.588 235.677 47.8926 234.891 47.8926 233.867L49.6942 219.181V218.797C45.3326 211.36 43.1517 206.65 43.1517 204.666C43.1517 203.13 44.2263 202.16 46.3756 201.755C47.8926 201.515 49.2833 203.759 50.5476 208.486L50.9268 208.81L51.4957 208.72C52.1279 202.988 53.5185 199.952 55.6677 199.611ZM79.1604 195.123C85.8609 194.061 89.8116 197.692 91.0127 206.013C91.0127 213.565 87.536 219.524 80.5827 223.889C79.8241 224.393 78.7811 224.751 77.4537 224.961L76.7899 225.066L74.7039 225.204V225.396L75.0832 250.968C74.6407 253.022 73.6293 254.175 72.049 254.425C70.2791 254.129 69.3941 253.341 69.3941 252.061L68.5408 199.972C68.5408 198.308 69.5206 197.289 71.4801 196.915L73.4713 197.464C75.2412 196.223 77.1376 195.443 79.1604 195.123ZM74.4195 206.049L74.135 209.07L74.4195 219.201L77.0744 219.453C81.3096 218.782 84.0593 215.211 85.3236 208.738V207.298C84.8811 202.312 83.1111 200.065 80.0138 200.555L78.5915 200.781C75.8102 201.221 74.4195 202.977 74.4195 206.049ZM103.995 185.237C106.524 184.901 110.791 188.705 116.796 196.65L116.985 198.252C116.985 200.044 112.655 202.105 103.995 204.437L103.711 204.77V205.154C105.038 210.704 106.429 213.364 107.883 213.133L109.021 212.953C111.043 212.633 114.109 209.939 118.218 204.872L118.787 204.782C120.051 204.582 121.031 205.355 121.726 207.101C121.726 208.637 119.071 211.713 113.762 216.33C112.371 217.382 110.696 218.256 108.736 218.95C103.616 219.761 100.045 215.463 98.0218 206.055C95.114 206.068 93.6601 205.082 93.6601 203.098C93.6601 201.69 94.7348 200.592 96.884 199.803V200.187L97.8321 199.653V197.253C97.8321 189.893 99.8865 185.888 103.995 185.237ZM104.564 192.059L103.711 192.194L103.332 195.806V198.782L103.711 198.722C107.251 198.033 109.021 197.369 109.021 196.729C107.377 194.493 105.892 192.937 104.564 192.059ZM137.886 176.509C141.868 175.879 144.239 178.319 144.997 183.831V184.695C144.997 190.903 141.837 197.1 135.516 203.285C139.182 206.352 145.598 207.16 154.764 205.708C156.154 205.936 156.85 206.818 156.85 208.354C156.85 210.082 155.744 211.121 153.531 211.471C147.336 212.453 140.825 211.884 133.999 209.765V212.549C133.999 219.141 132.608 222.657 129.827 223.098C127.867 223.408 126.887 219.755 126.887 212.139V204.651L126.603 202.008L127.266 198.831L126.603 189.72V189.336C126.603 187.608 127.488 186.284 129.258 185.364C131.723 179.981 134.599 177.03 137.886 176.509ZM133.145 198.284C134.978 197.994 137.033 194.34 139.308 187.324V183.196L138.171 182.128L137.317 182.263C134.536 184.624 133.145 189.964 133.145 198.284ZM171.189 150.787C172.959 150.89 173.844 151.646 173.844 153.054L173.275 157.368V158.616C173.275 161.432 173.592 164.358 174.224 167.394L174.413 167.364C181.746 163.963 186.297 162.122 188.067 161.841C189.9 162.063 190.817 162.846 190.817 164.19C190.817 166.366 188.636 167.799 184.274 168.49L174.413 173.604C174.413 182.244 175.33 193.843 177.163 208.4C176.784 210.188 175.867 211.198 174.413 211.428L174.224 211.458C172.011 211.808 170.905 209.104 170.905 203.344C170.083 199.186 169.388 189.984 168.819 175.738L167.112 176.008C161.17 176.565 158.199 175.628 158.199 173.196C158.199 172.492 158.863 171.523 160.191 170.289L161.139 170.138L165.5 170.6L168.535 170.119L167.681 158.254C167.681 153.646 168.851 151.157 171.189 150.787ZM247.937 136.327L276.383 129.998C277.204 129.867 277.995 130.542 278.753 132.022C278.753 134.454 275.972 136.111 270.409 136.992L253.816 140.58L253.437 140.832C255.017 151.014 255.807 170.696 255.807 199.88C255.491 202.746 254.48 204.315 252.773 204.585C251.13 204.845 250.181 203.715 249.928 201.196V178.924C249.928 164.076 249.265 151.797 247.937 142.087C236.622 144.967 230.965 147.143 230.965 148.615L230.112 149.134C228.152 148.869 227.172 148 227.172 146.528C227.172 143.008 234.094 139.607 247.937 136.327ZM278.261 157.636C280.789 157.3 285.056 161.104 291.061 169.049L291.251 170.651C291.251 172.443 286.921 174.505 278.261 176.836L277.976 177.169V177.553C279.304 183.103 280.694 185.763 282.148 185.532L283.286 185.352C285.309 185.032 288.375 182.338 292.483 177.271L293.052 177.181C294.316 176.981 295.296 177.754 295.992 179.5C295.992 181.036 293.337 184.112 288.027 188.729C286.636 189.782 284.961 190.655 283.001 191.349C277.881 192.16 274.31 187.862 272.287 178.454C269.379 178.467 267.925 177.481 267.925 175.497C267.925 174.089 269 172.991 271.149 172.202V172.586L272.097 172.052V169.652C272.097 162.292 274.152 158.287 278.261 157.636ZM278.829 164.458L277.976 164.593L277.597 168.205V171.181L277.976 171.121C281.516 170.433 283.286 169.768 283.286 169.128C281.642 166.893 280.157 165.336 278.829 164.458ZM309.307 154.639L313.194 153.447C314.775 153.197 315.66 154.049 315.849 156.003C315.849 157.731 313.795 159.176 309.686 160.339C307.094 162.797 305.799 165.627 305.799 168.827V171.995C307.063 178.834 309.212 182.014 312.246 181.533L313.194 181.383C314.964 181.103 317.619 178.986 321.159 175.034L321.728 174.944C322.992 174.743 324.004 175.479 324.762 177.151C323.877 180.043 321.033 182.99 316.229 185.991C315.344 186.515 314.237 186.882 312.91 187.092C306.399 188.123 302.164 183.61 300.204 173.553V171.441C300.204 163.953 303.238 158.352 309.307 154.639ZM333.526 130.355C335.296 130.075 336.181 132.11 336.181 136.462L337.319 152.794L337.698 152.734L342.439 150.159C347.749 149.318 350.973 154.312 352.111 165.139C352.553 168.205 352.774 172.778 352.774 178.858V186.634C352.774 189.066 351.889 190.422 350.119 190.703L349.74 190.763C348.033 190.777 347.18 189.984 347.18 188.384V179.36C347.18 164.896 345.789 157.117 343.008 156.021L342.439 156.111C340.543 156.412 339.152 159.576 338.267 165.604V170.98C338.267 180.58 337.477 185.505 335.897 185.755L334.095 186.233C332.325 186.513 331.44 183.997 331.44 178.685C331.63 173.023 332.009 168.355 332.578 164.681L330.587 133.412C330.587 131.748 331.567 130.729 333.526 130.355ZM407.764 128.389C410.735 127.918 412.789 130.793 413.927 137.013V137.397C413.927 138.869 412.947 139.888 410.987 140.454C409.407 140.705 408.332 138.891 407.764 135.013L407.384 134.785L406.246 134.965C404.856 137.233 404.16 140.032 404.16 143.36L404.445 148.115C406.973 147.714 409.723 146.607 412.694 144.792C413.895 144.602 415.001 145.291 416.013 146.858C416.013 149.482 412.473 151.771 405.393 153.724L407.764 168.997C407.764 170.341 406.657 171.38 404.445 172.115C402.485 172.425 401.506 169.508 401.506 163.364L399.704 155.489L393.541 157.426C392.213 157.636 391.423 156.769 391.17 154.825C391.17 152.905 393.73 151.284 398.851 149.961L398.471 144.069C399.483 134.436 402.58 129.21 407.764 128.389ZM433.699 131.289C438.377 130.548 441.917 133.508 444.319 140.167L444.698 142.123C444.698 148.971 441.538 156.48 435.216 164.649C432.688 167.417 430.128 169.007 427.536 169.417C423.743 170.018 421.057 168.235 419.477 164.07C418.908 162.112 418.623 160.365 418.623 158.829V157.677C418.623 147.565 422.258 139.309 429.527 132.91C430.792 132.07 432.182 131.529 433.699 131.289ZM424.217 157.751C424.217 162.103 425.324 164.104 427.536 163.753C432.151 163.022 435.975 156.433 439.009 143.984V142.16C437.934 138.362 435.943 136.694 433.036 137.154C431.898 137.334 431.329 138.225 431.329 139.825C431.329 140.913 430.065 141.977 427.536 143.017C425.324 147.144 424.217 152.055 424.217 157.751ZM461.416 125.267C465.398 124.636 467.769 127.077 468.527 132.589V133.453C468.527 139.661 465.367 145.857 459.045 152.043C462.712 155.11 469.128 155.918 478.293 154.466C479.684 154.694 480.379 155.576 480.379 157.112C480.379 158.84 479.273 159.879 477.061 160.229C470.866 161.21 464.355 160.642 457.528 158.523V161.307C457.528 167.899 456.138 171.415 453.356 171.856C451.397 172.166 450.417 168.513 450.417 160.897V153.409L450.132 150.766L450.796 147.589L450.132 138.478V138.094C450.132 136.366 451.017 135.042 452.787 134.122C455.253 128.739 458.129 125.788 461.416 125.267ZM456.675 147.042C458.508 146.752 460.562 143.098 462.838 136.082V131.954L461.7 130.886L460.847 131.021C458.066 133.382 456.675 138.722 456.675 147.042ZM533.211 89.128C534.349 88.9478 535.328 89.7846 536.15 91.6384C533.622 99.0789 532.357 105.871 532.357 112.015V115.279C532.357 122.447 534.159 125.746 537.762 125.175C542.377 124.444 545.537 115.752 547.244 99.0974C547.244 91.4814 547.908 87.5682 549.235 87.358L550.752 86.9257C552.08 86.7155 552.87 87.6783 553.123 89.8143V122.166C553.123 142.326 549.772 154.665 543.072 159.182C541.808 160.086 539.911 160.995 537.383 161.907C531.82 162.788 525.499 160.493 518.419 155.023L518.135 153.916C518.135 152.444 519.209 151.346 521.359 150.621L528.849 154.811C531.757 155.95 533.938 156.405 535.392 156.175L537.952 155.769C544.273 154.768 547.434 144.379 547.434 124.603V123.451L546.58 123.586C544.178 127.743 541.112 130.117 537.383 130.707C532.768 131.438 529.513 128.946 527.617 123.23C526.984 120.962 526.668 118.612 526.668 116.18V115.316C527.68 98.388 529.861 89.6586 533.211 89.128ZM573.519 109.144C578.197 108.403 581.736 111.362 584.139 118.022L584.518 119.978C584.518 126.826 581.357 134.334 575.036 142.504C572.508 145.272 569.947 146.861 567.356 147.272C563.563 147.873 560.876 146.09 559.296 141.924C558.727 139.967 558.443 138.22 558.443 136.684V135.532C558.443 125.42 562.078 117.164 569.347 110.765C570.611 109.924 572.002 109.384 573.519 109.144ZM564.037 135.606C564.037 139.958 565.143 141.958 567.356 141.608C571.97 140.877 575.795 134.287 578.829 121.839V120.015C577.754 116.217 575.763 114.548 572.855 115.009C571.717 115.189 571.148 116.079 571.148 117.679C571.148 118.767 569.884 119.831 567.356 120.872C565.143 124.998 564.037 129.91 564.037 135.606ZM592.512 113.432L594.219 112.201C595.736 111.961 596.842 112.714 597.538 114.46C596.526 119.356 596.02 124.3 596.02 129.292C596.02 131.788 596.747 134.393 598.201 137.107L598.77 137.016C600.603 136.726 602.784 129.053 605.313 113.996C606.198 113.088 607.051 112.569 607.873 112.439C609.832 112.128 610.812 115.493 610.812 122.533C611.634 130.147 612.55 133.874 613.562 133.714L614.984 132.912C616.817 133.326 617.734 134.173 617.734 135.453C616.596 138.065 615.016 139.531 612.993 139.852C610.717 140.212 608.536 138.254 606.45 133.976C603.922 139.752 601.362 142.846 598.77 143.256C594.914 143.867 592.228 140.229 590.711 132.341L590.426 129.314V128.354C590.426 123.234 591.121 118.26 592.512 113.432ZM632.255 98.2089C636.237 97.5782 638.608 100.019 639.366 105.531V106.395C639.366 112.603 636.206 118.799 629.885 124.984C633.551 128.052 639.967 128.859 649.133 127.408C650.523 127.636 651.219 128.517 651.219 130.053C651.219 131.781 650.112 132.821 647.9 133.171C641.705 134.152 635.194 133.583 628.367 131.465V134.249C628.367 140.841 626.977 144.357 624.195 144.797C622.236 145.108 621.256 141.455 621.256 133.839V126.351L620.972 123.708L621.635 120.531L620.972 111.42V111.036C620.972 109.308 621.857 107.984 623.627 107.064C626.092 101.681 628.968 98.7295 632.255 98.2089ZM627.514 119.984C629.347 119.693 631.402 116.04 633.677 109.024V104.896L632.539 103.828L631.686 103.963C628.905 106.324 627.514 111.664 627.514 119.984ZM699.214 69.3636C708.127 67.9519 716.724 71.3903 725.005 79.6788C727.533 84.3343 728.798 89.0301 728.798 93.7661C728.798 104.902 723.203 113.98 712.015 121C708.412 123.171 704.524 124.587 700.352 125.247L697.982 125.623C695.643 125.929 694.473 125.123 694.473 123.203L694.189 123.248C694.189 121.52 695.264 120.453 697.413 120.049L699.594 119.704V119.128L699.783 119.098C695.864 102.886 693.905 90.6846 693.905 82.4926L693.62 82.5377L691.25 84.4491C689.606 84.7094 688.626 83.7446 688.31 81.5547C688.31 78.0347 690.27 74.6523 694.189 71.4076C695.769 70.3253 697.444 69.6439 699.214 69.3636ZM700.352 74.8474L699.594 74.9675V79.5755C699.594 90.0715 701.553 102.945 705.472 118.196L705.757 118.151C717.451 113.099 723.298 105.261 723.298 94.6371C723.298 83.2451 716.756 76.6653 703.671 74.8978C702.912 74.6339 701.806 74.6171 700.352 74.8474ZM750.252 80.2881C753.033 79.8476 754.424 80.7473 754.424 82.9873L753.57 84.9465L753.001 102.605C753.001 110.541 754.582 115.218 757.742 116.638L757.932 118.048C757.742 119.934 756.889 120.997 755.372 121.237L754.803 121.327C750.062 118.814 747.692 114.198 747.692 107.478L747.028 107.583C744.499 115.151 741.434 119.221 737.83 119.791C734.48 119.362 732.805 117.099 732.805 113.003C732.805 103.979 736.377 94.4217 743.52 84.3304C745.922 81.9659 748.166 80.6185 750.252 80.2881ZM738.779 108.217L738.399 110.965V112.789L739.348 112.639C744.088 99.9203 746.459 92.2488 746.459 89.6248L746.08 89.6849C742.413 94.4256 739.98 100.603 738.779 108.217ZM761.345 65.5711C763.747 65.7027 764.948 66.6005 764.948 68.2645C764.316 70.1566 763.304 71.2128 761.914 71.433C759.575 71.3555 758.405 70.3567 758.405 68.4367C759.037 66.7366 760.017 65.7814 761.345 65.5711ZM764.948 78.4405C765.959 78.2803 766.812 79.0731 767.508 80.819L766.654 87.7702V92.2822C766.654 97.5302 767.539 104.27 769.309 112.502C768.677 113.818 767.603 114.596 766.086 114.836C763.494 115.247 761.787 107.837 760.965 92.6072V89.2472C760.965 82.4632 762.293 78.861 764.948 78.4405ZM779.593 59.8008C781.363 60.1605 782.248 61.0123 782.248 62.3563L783.197 98.7821V110.59C783.197 112.766 782.28 113.999 780.447 114.29L779.214 114.485C778.076 113.897 777.507 113.091 777.507 112.067V100.931L776.654 63.0504C776.654 61.4504 777.634 60.3672 779.593 59.8008ZM793.057 81.7644C795.269 81.414 796.786 86.1017 797.608 95.8276C798.683 100.201 799.473 102.348 799.979 102.268L800.547 102.178C802.128 97.8957 802.918 93.7706 802.918 89.8026L802.349 83.2687C803.044 81.4306 804.024 80.4114 805.288 80.2111C807.627 79.8407 808.797 83.8475 808.797 92.2315C810.187 100.715 810.883 108.701 810.883 116.189V120.701C810.883 134.461 807.027 144.352 799.315 150.373L797.229 151.088C793.626 151.658 790.276 148.797 787.178 142.504L786.325 136.879V136.591C786.325 132.367 787.494 130.069 789.833 129.699L792.203 130.86L791.919 136.953C791.919 139.897 793.405 142.637 796.375 145.175L797.608 144.98C801.085 144.429 803.645 137.303 805.288 123.603L805.478 118.005C805.415 111.551 805.162 107.463 804.719 105.741C802.191 108.382 800.2 109.817 798.746 110.047C795.522 110.558 792.646 102.278 790.117 85.206L789.833 85.059C789.833 83.587 790.908 82.4888 793.057 81.7644ZM862.9 49.6784C867.198 48.9976 869.695 51.7381 870.391 57.9C870.391 63.084 869.19 66.5382 866.788 68.2626L866.219 68.3527C864.385 68.5151 863.469 67.9883 863.469 66.7723L863.848 59.5122V55.9602L863.279 55.3783L862.331 55.5285C860.308 55.8488 857.938 61.9203 855.22 73.7428L854.651 81.0329V83.1449C854.651 89.8009 857.59 93.2394 863.469 93.4603L867.451 92.8295C874.025 91.7883 881.99 86.2388 891.345 76.181L891.725 76.121C893.431 75.8507 894.411 76.7835 894.664 78.9194C893.21 82.9897 891.503 85.18 889.544 85.4904C880.505 93.4501 872.382 98.0006 865.176 99.1419C857.969 100.283 852.881 97.0892 849.91 89.5598L849.057 82.8789V81.6309C849.057 71.7109 851.806 62.1554 857.306 52.9644C859.076 51.0841 860.94 49.9887 862.9 49.6784ZM913.438 55.3059C918.116 54.565 921.656 57.5244 924.058 64.1839L924.437 66.1399C924.437 72.9879 921.276 80.4965 914.955 88.6656C912.427 91.4341 909.867 93.0236 907.275 93.4341C903.482 94.0348 900.796 92.2523 899.215 88.0866C898.646 86.1287 898.362 84.3817 898.362 82.8457V81.6937C898.362 71.5817 901.997 63.3261 909.266 56.9267C910.53 56.0865 911.921 55.5462 913.438 55.3059ZM903.956 81.7677C903.956 86.1197 905.062 88.1205 907.275 87.7701C911.889 87.0392 915.714 80.4495 918.748 68.0009V66.1769C917.673 62.3791 915.682 60.7105 912.774 61.171C911.636 61.3513 911.068 62.2414 911.068 63.8414C911.068 64.9294 909.803 65.9936 907.275 67.0341C905.062 71.1605 903.956 76.0717 903.956 81.7677ZM930.156 55.2501C930.598 53.58 931.61 52.6198 933.19 52.3695C934.77 52.1192 935.813 53.5541 936.319 56.674L936.698 56.6139L941.06 54.9631C943.083 54.6427 945.042 56.2523 946.938 59.792L947.318 59.7319C950.099 54.8754 952.944 52.2169 955.851 51.7563C962.046 51.9272 965.144 55.5326 965.144 62.5726L965.333 65.9025L964.48 85.4297V87.2537C964.48 88.8537 963.5 89.9369 961.54 90.5033C959.581 90.8136 958.601 88.6328 958.601 83.9608L959.739 66.4046C959.739 60.0046 958.253 57.0399 955.282 57.5104C953.576 57.7807 951.521 62.2981 949.119 71.0626C947.918 80.8528 946.938 85.808 946.18 85.9281C945.105 86.0983 944.568 86.4074 944.568 86.8554C942.608 86.9098 941.629 86.041 941.629 84.249L942.861 72.4377C942.672 64.4678 941.881 60.5929 940.491 60.8132L940.206 60.8582C938.626 62.3245 937.836 64.8497 937.836 68.4337V73.5217L937.457 88.2697C937.014 89.9398 936.034 90.895 934.517 91.1353C933.19 91.3455 932.336 90.3607 931.957 88.1808L931.578 76.9128L932.147 67.5107C931.768 62.7708 931.104 58.6839 930.156 55.2501ZM985.376 36.9041C988.347 36.4335 990.401 39.3081 991.539 45.5279V45.9119C991.539 47.3839 990.559 48.4031 988.6 48.9695C987.02 49.2197 985.945 47.4059 985.376 43.5281L984.997 43.3001L983.859 43.4803C982.468 45.7486 981.773 48.5467 981.773 51.8747L982.057 56.6297C984.586 56.2292 987.336 55.1217 990.307 53.3071C991.508 53.1169 992.614 53.8057 993.625 55.3735C993.625 57.9975 990.085 60.2862 983.006 62.2395L985.376 77.5121C985.376 78.8561 984.27 79.8953 982.057 80.6297C980.098 80.94 979.118 78.0232 979.118 71.8792L977.317 64.0046L971.153 65.9407C969.826 66.151 969.036 65.2841 968.783 63.3402C968.783 61.4202 971.343 59.7987 976.463 58.4757L976.084 52.5838C977.095 42.9516 980.193 37.725 985.376 36.9041ZM1011.31 39.8042C1015.99 39.0634 1019.53 42.0227 1021.93 48.6823L1022.31 50.6382C1022.31 57.4862 1019.15 64.9948 1012.83 73.164C1010.3 75.9324 1007.74 77.5219 1005.15 77.9324C1001.36 78.5331 998.669 76.7506 997.089 72.5849C996.52 70.627 996.236 68.8801 996.236 67.3441V66.1921C996.236 56.0801 999.87 47.8244 1007.14 41.425C1008.4 40.5848 1009.79 40.0445 1011.31 39.8042ZM1001.83 66.266C1001.83 70.618 1002.94 72.6188 1005.15 72.2684C1009.76 71.5375 1013.59 64.9478 1016.62 52.4993V50.6752C1015.55 46.8775 1013.56 45.2088 1010.65 45.6694C1009.51 45.8496 1008.94 46.7397 1008.94 48.3397C1008.94 49.4277 1007.68 50.4919 1005.15 51.5324C1002.94 55.6588 1001.83 60.57 1001.83 66.266ZM1039.03 33.7824C1043.01 33.1516 1045.38 35.5922 1046.14 41.104V41.968C1046.14 48.1761 1042.98 54.3726 1036.66 60.5578C1040.32 63.6251 1046.74 64.4329 1055.91 62.9812C1057.3 63.209 1057.99 64.0908 1057.99 65.6268C1057.99 67.3548 1056.89 68.394 1054.67 68.7445C1048.48 69.7256 1041.97 69.1568 1035.14 67.0381V69.8221C1035.14 76.4141 1033.75 79.9304 1030.97 80.3709C1029.01 80.6813 1028.03 77.0284 1028.03 69.4124V61.9244L1027.74 59.2815L1028.41 56.1044L1027.74 46.9935V46.6095C1027.74 44.8815 1028.63 43.5573 1030.4 42.637C1032.87 37.2545 1035.74 34.303 1039.03 33.7824ZM1034.29 55.5573C1036.12 55.2669 1038.17 51.6135 1040.45 44.5971V40.4691L1039.31 39.4013L1038.46 39.5365C1035.68 41.897 1034.29 47.2373 1034.29 55.5573ZM1072.33 8.05964C1074.1 8.16331 1074.99 8.91915 1074.99 10.3271L1074.42 14.6413V15.8893C1074.42 18.7053 1074.73 21.6312 1075.37 24.6671L1075.56 24.637C1082.89 21.2357 1087.44 19.3948 1089.21 19.1145C1091.04 19.3361 1091.96 20.119 1091.96 21.463C1091.96 23.639 1089.78 25.0724 1085.42 25.7632L1075.56 30.877C1075.56 39.517 1076.47 51.1159 1078.31 65.6735C1077.93 67.4616 1077.01 68.4708 1075.56 68.701L1075.37 68.7311C1073.15 69.0815 1072.05 66.3767 1072.05 60.6167C1071.23 56.4589 1070.53 47.257 1069.96 33.0111L1068.25 33.2814C1062.31 33.8385 1059.34 32.9011 1059.34 30.4691C1059.34 29.7651 1060.01 28.7959 1061.33 27.5617L1062.28 27.4115L1066.64 27.8727L1069.68 27.3921L1068.82 15.5273C1068.82 10.9193 1069.99 8.43008 1072.33 8.05964Z" fill="#4CB6E9" fill-opacity="0.2"/>
</svg>
