<svg width="1091" height="273" viewBox="0 0 1091 273" fill="none" xmlns="http://www.w3.org/2000/svg">
<path d="M17.3704 174.265L17.7497 174.205C25.3983 174.402 29.2226 177.54 29.2226 183.62V185.348C29.2226 192.068 24.9874 199.427 16.517 207.424V207.808C30.234 218.052 39.7159 222.758 44.9625 221.927C45.9106 222.481 46.3847 223.27 46.3847 224.294C46.3847 225.766 45.3101 226.864 43.1609 227.588C37.9143 228.419 28.1164 223.571 13.7673 213.044L9.69012 211.482L9.40567 211.527C11.1756 218.414 12.0606 223.81 12.0606 227.714C12.0606 229.378 11.0492 230.722 9.0264 231.747C6.11864 232.207 4.28549 225.298 3.52695 211.018C1.50416 204.682 0.492768 199.53 0.492768 195.562V194.698C0.492768 188.874 1.75701 185.762 4.28549 185.362L6.08703 186.036L6.65594 185.946C9.69012 178.81 13.2616 174.916 17.3704 174.265ZM9.69012 201.114L9.40567 204.711C15.2844 203.78 20.0253 198.101 23.6284 187.674V184.122C23.6284 181.306 21.732 179.91 17.9393 179.935L17.3704 180.025C13.388 180.656 10.8279 187.685 9.69012 201.114ZM58.9511 187.84C61.4796 187.503 65.7464 191.307 71.7515 199.252L71.9412 200.854C71.9412 202.646 67.6111 204.708 58.9511 207.04L58.6666 207.373V207.757C59.9941 213.306 61.3847 215.966 62.8386 215.736L63.9764 215.556C65.9992 215.235 69.065 212.542 73.1738 207.475L73.7427 207.385C75.0069 207.185 75.9867 207.957 76.6821 209.703C76.6821 211.239 74.0272 214.316 68.7173 218.933C67.3267 219.985 65.6516 220.858 63.692 221.553C58.5718 222.364 55.0003 218.065 52.9775 208.658C50.0698 208.67 48.6159 207.684 48.6159 205.7C48.6159 204.292 49.6905 203.194 51.8397 202.406V202.79L52.7879 202.256V199.856C52.7879 192.496 54.8423 188.49 58.9511 187.84ZM59.52 194.661L58.6666 194.797L58.2874 198.409V201.385L58.6666 201.325C62.2065 200.636 63.9764 199.972 63.9764 199.332C62.3329 197.096 60.8474 195.539 59.52 194.661ZM92.6522 184.614C98.0253 184.211 100.712 186.441 100.712 191.305L100.901 192.523L100.712 207.529C100.712 209.257 101.692 211.438 103.651 214.072V214.264C103.145 216.2 102.229 217.273 100.901 217.483C96.9823 216.44 95.0227 213.23 95.0227 207.854V206.606L94.7382 206.459L95.0227 206.03V205.838L95.3071 192.545C95.3071 190.689 94.517 189.886 92.9367 190.137L91.7989 190.317C88.6383 192.098 87.058 199.356 87.058 212.092C87.058 216.508 85.9518 218.891 83.7393 219.241C82.0326 219.512 81.1476 218.564 81.0844 216.398V206.798C81.0844 194.382 82.159 188.004 84.3082 187.663L85.2564 187.225L87.2476 187.198C88.9543 185.775 90.7559 184.914 92.6522 184.614ZM121.794 176.158C126.472 175.417 130.012 178.377 132.414 185.036L132.793 186.992C132.793 193.84 129.632 201.349 123.311 209.518C120.783 212.286 118.223 213.876 115.631 214.286C111.838 214.887 109.152 213.105 107.571 208.939C107.002 206.981 106.718 205.234 106.718 203.698V202.546C106.718 192.434 110.353 184.178 117.622 177.779C118.886 176.939 120.277 176.398 121.794 176.158ZM112.312 202.62C112.312 206.972 113.418 208.973 115.631 208.622C120.245 207.891 124.07 201.302 127.104 188.853V187.029C126.029 183.231 124.038 181.563 121.13 182.023C119.992 182.204 119.424 183.094 119.424 184.694C119.424 185.782 118.159 186.846 115.631 187.886C113.418 192.013 112.312 196.924 112.312 202.62ZM138.417 177.365C139.871 177.135 141.451 180.405 143.158 187.174C145.56 192.426 146.919 195.187 147.235 195.457C147.551 195.407 148.72 192.021 150.743 185.301C152.766 178.581 154.694 175.075 156.527 174.785C158.234 175.155 159.087 176.044 159.087 177.452C153.841 191.978 151.217 201.45 151.217 205.866L149.416 207.975L147.614 208.261C145.339 206.957 141.483 198.768 136.046 183.693L135.193 180.276C135.635 178.606 136.71 177.636 138.417 177.365ZM180.838 165.943C183.619 165.502 185.009 166.402 185.009 168.642L184.156 170.601L183.587 188.259C183.587 196.195 185.168 200.873 188.328 202.292L188.518 203.702C188.328 205.588 187.475 206.651 185.958 206.892L185.389 206.982C180.648 204.469 178.277 199.852 178.277 193.132L177.614 193.237C175.085 200.806 172.019 204.875 168.416 205.446C165.066 205.017 163.391 202.754 163.391 198.658C163.391 189.634 166.962 180.076 174.105 169.985C176.507 167.62 178.752 166.273 180.838 165.943ZM169.365 193.872L168.985 196.62V198.444L169.933 198.294C174.674 185.575 177.045 177.903 177.045 175.279L176.666 175.339C172.999 180.08 170.566 186.258 169.365 193.872ZM201.981 141.378C203.751 141.481 204.636 142.237 204.636 143.645L204.067 147.959V149.207C204.067 152.023 204.383 154.949 205.015 157.985L205.205 157.955C212.538 154.554 217.089 152.713 218.859 152.433C220.692 152.654 221.609 153.437 221.609 154.781C221.609 156.957 219.428 158.391 215.066 159.081L205.205 164.195C205.205 172.835 206.122 184.434 207.955 198.992C207.575 200.78 206.659 201.789 205.205 202.019L205.015 202.049C202.803 202.4 201.697 199.695 201.697 193.935C200.875 189.777 200.18 180.575 199.611 166.329L197.904 166.6C191.962 167.157 188.991 166.219 188.991 163.787C188.991 163.083 189.655 162.114 190.982 160.88L191.93 160.73L196.292 161.191L199.326 160.71L198.473 148.845C198.473 144.237 199.642 141.748 201.981 141.378ZM225.635 145.887C228.037 146.019 229.238 146.917 229.238 148.581C228.606 150.473 227.595 151.529 226.204 151.749C223.865 151.672 222.696 150.673 222.696 148.753C223.328 147.053 224.308 146.098 225.635 145.887ZM229.238 158.757C230.25 158.596 231.103 159.389 231.799 161.135L230.945 168.086V172.598C230.945 177.846 231.83 184.586 233.6 192.818C232.968 194.134 231.893 194.912 230.376 195.152C227.785 195.563 226.078 188.153 225.256 172.923V169.563C225.256 162.779 226.584 159.177 229.238 158.757ZM253.65 155.274C258.328 154.533 261.868 157.493 264.27 164.152L264.649 166.108C264.649 172.956 261.489 180.465 255.167 188.634C252.639 191.402 250.079 192.992 247.487 193.402C243.694 194.003 241.008 192.221 239.428 188.055C238.859 186.097 238.574 184.35 238.574 182.814V181.662C238.574 171.55 242.209 163.294 249.478 156.895C250.743 156.055 252.133 155.514 253.65 155.274ZM244.169 181.736C244.169 186.088 245.275 188.089 247.487 187.738C252.102 187.007 255.926 180.418 258.96 167.969V166.145C257.886 162.347 255.894 160.679 252.987 161.139C251.849 161.32 251.28 162.21 251.28 163.81C251.28 164.898 250.016 165.962 247.487 167.002C245.275 171.129 244.169 176.04 244.169 181.736ZM281.177 154.754C286.55 154.351 289.237 156.582 289.237 161.446L289.426 162.664L289.237 177.67C289.237 179.398 290.217 181.579 292.176 184.212V184.404C291.67 186.34 290.754 187.414 289.426 187.624C285.507 186.581 283.548 183.371 283.548 177.995V176.747L283.263 176.6L283.548 176.171V175.979L283.832 162.686C283.832 160.83 283.042 160.027 281.462 160.277L280.324 160.458C277.163 162.238 275.583 169.496 275.583 182.232C275.583 186.648 274.477 189.032 272.264 189.382C270.558 189.652 269.673 188.704 269.609 186.539V176.939C269.609 164.523 270.684 158.144 272.833 157.804L273.781 157.366L275.773 157.338C277.479 155.916 279.281 155.055 281.177 154.754ZM342.079 119.189C343.849 119.292 344.734 120.048 344.734 121.456L344.165 125.77V127.018C344.165 129.834 344.481 132.76 345.113 135.796L345.302 135.766C352.635 132.365 357.186 130.524 358.956 130.243C360.789 130.465 361.706 131.248 361.706 132.592C361.706 134.768 359.525 136.201 355.164 136.892L345.302 142.006C345.302 150.646 346.219 162.245 348.052 176.802C347.673 178.59 346.756 179.6 345.302 179.83L345.113 179.86C342.9 180.21 341.794 177.506 341.794 171.746C340.972 167.588 340.277 158.386 339.708 144.14L338.001 144.41C332.06 144.967 329.089 144.03 329.089 141.598C329.089 140.894 329.752 139.925 331.08 138.691L332.028 138.54L336.39 139.002L339.424 138.521L338.57 126.656C338.57 122.048 339.74 119.559 342.079 119.189ZM368.577 120.272C370.347 119.991 371.232 122.027 371.232 126.379L372.37 142.711L372.749 142.651L377.49 140.076C382.8 139.235 386.024 144.228 387.162 155.056C387.604 158.122 387.825 162.695 387.825 168.775V176.551C387.825 178.983 386.94 180.339 385.17 180.619L384.791 180.68C383.084 180.694 382.231 179.901 382.231 178.301V169.277C382.231 154.813 380.84 147.033 378.059 145.938L377.49 146.028C375.594 146.328 374.203 149.492 373.318 155.521V160.897C373.318 170.497 372.528 175.422 370.948 175.672L369.146 176.149C367.376 176.43 366.491 173.914 366.491 168.602C366.681 162.94 367.06 158.272 367.629 154.598L365.638 123.329C365.638 121.665 366.618 120.646 368.577 120.272ZM410.012 129.645C412.793 129.204 414.184 130.104 414.184 132.344L413.331 134.303L412.762 151.961C412.762 159.897 414.342 164.575 417.503 165.995L417.692 167.404C417.503 169.291 416.649 170.354 415.132 170.594L414.563 170.684C409.822 168.171 407.452 163.554 407.452 156.834L406.788 156.94C404.26 164.508 401.194 168.578 397.591 169.148C394.241 168.719 392.566 166.456 392.566 162.36C392.566 153.336 396.137 143.779 403.28 133.687C405.682 131.323 407.926 129.975 410.012 129.645ZM398.539 157.574L398.16 160.322V162.146L399.108 161.996C403.849 149.277 406.219 141.606 406.219 138.982L405.84 139.042C402.174 143.782 399.74 149.96 398.539 157.574ZM431.156 105.08C432.926 105.184 433.811 105.94 433.811 107.348L433.242 111.662V112.91C433.242 115.726 433.558 118.652 434.19 121.688L434.38 121.657C441.712 118.256 446.263 116.415 448.033 116.135C449.867 116.357 450.783 117.139 450.783 118.483C450.783 120.659 448.602 122.093 444.241 122.784L434.38 127.897C434.38 136.537 435.296 148.136 437.129 162.694C436.75 164.482 435.833 165.491 434.38 165.721L434.19 165.752C431.978 166.102 430.871 163.397 430.871 157.637C430.05 153.479 429.354 144.277 428.785 130.032L427.079 130.302C421.137 130.859 418.166 129.922 418.166 127.49C418.166 126.786 418.829 125.816 420.157 124.582L421.105 124.432L425.467 124.893L428.501 124.413L427.647 112.548C427.647 107.94 428.817 105.451 431.156 105.08ZM497.948 118.309C500.476 117.973 504.743 121.777 510.748 129.722L510.938 131.324C510.938 133.116 506.608 135.178 497.948 137.509L497.663 137.842V138.226C498.991 143.776 500.381 146.436 501.835 146.206L502.973 146.025C504.996 145.705 508.062 143.011 512.17 137.945L512.739 137.855C514.004 137.654 514.983 138.427 515.679 140.173C515.679 141.709 513.024 144.785 507.714 149.402C506.323 150.455 504.648 151.328 502.689 152.022C497.568 152.833 493.997 148.535 491.974 139.127C489.066 139.14 487.613 138.154 487.613 136.17C487.613 134.762 488.687 133.664 490.836 132.876V133.26L491.785 132.725V130.325C491.785 122.965 493.839 118.96 497.948 118.309ZM498.517 125.131L497.663 125.266L497.284 128.878V131.854L497.663 131.794C501.203 131.106 502.973 130.441 502.973 129.801C501.33 127.566 499.844 126.009 498.517 125.131ZM531.649 115.084C537.022 114.681 539.708 116.911 539.708 121.775L539.898 122.993L539.708 137.999C539.708 139.727 540.688 141.908 542.648 144.541V144.733C542.142 146.67 541.225 147.743 539.898 147.953C535.979 146.91 534.019 143.7 534.019 138.324V137.076L533.735 136.929L534.019 136.5V136.308L534.304 123.015C534.304 121.159 533.514 120.356 531.933 120.606L530.795 120.787C527.635 122.567 526.055 129.826 526.055 142.562C526.055 146.978 524.948 149.361 522.736 149.711C521.029 149.982 520.144 149.034 520.081 146.868V137.268C520.081 124.852 521.156 118.474 523.305 118.133L524.253 117.695L526.244 117.668C527.951 116.245 529.752 115.384 531.649 115.084ZM549.602 91.6C551.372 91.3197 552.257 93.3555 552.257 97.7075L553.395 114.039L553.774 113.979L558.515 111.404C563.825 110.563 567.049 115.557 568.186 126.385C568.629 129.45 568.85 134.023 568.85 140.103V147.879C568.85 150.311 567.965 151.668 566.195 151.948L565.816 152.008C564.109 152.022 563.256 151.229 563.256 149.629V140.605C563.256 126.141 561.865 118.362 559.084 117.266L558.515 117.356C556.619 117.657 555.228 120.821 554.343 126.849V132.225C554.343 141.825 553.553 146.75 551.973 147.001L550.171 147.478C548.401 147.758 547.516 145.242 547.516 139.93C547.706 134.268 548.085 129.6 548.654 125.926L546.663 94.6576C546.663 92.9936 547.642 91.9744 549.602 91.6ZM591.037 100.973C593.818 100.533 595.209 101.433 595.209 103.673L594.355 105.632L593.787 123.29C593.787 131.226 595.367 135.904 598.527 137.323L598.717 138.733C598.527 140.619 597.674 141.682 596.157 141.922L595.588 142.013C590.847 139.499 588.477 134.883 588.477 128.163L587.813 128.268C585.285 135.836 582.219 139.906 578.616 140.477C575.265 140.047 573.59 137.785 573.59 133.689C573.59 124.665 577.162 115.107 584.305 105.016C586.707 102.651 588.951 101.304 591.037 100.973ZM579.564 128.903L579.185 131.651V133.475L580.133 133.324C584.874 120.606 587.244 112.934 587.244 110.31L586.865 110.37C583.199 115.111 580.765 121.288 579.564 128.903ZM613.318 102.148C618.691 101.745 621.378 103.976 621.378 108.84L621.568 110.058L621.378 125.064C621.378 126.792 622.358 128.973 624.317 131.606V131.798C623.812 133.734 622.895 134.808 621.568 135.018C617.648 133.975 615.689 130.765 615.689 125.389V124.141L615.404 123.994L615.689 123.565V123.373L615.973 110.08C615.973 108.224 615.183 107.421 613.603 107.671L612.465 107.852C609.304 109.632 607.724 116.89 607.724 129.626C607.724 134.042 606.618 136.426 604.405 136.776C602.699 137.046 601.814 136.099 601.751 133.933V124.333C601.751 111.917 602.825 105.538 604.974 105.198L605.923 104.76L607.914 104.732C609.62 103.31 611.422 102.449 613.318 102.148ZM636.961 98.2118L640.848 97.0201C642.428 96.7698 643.313 97.6216 643.503 99.5756C643.503 101.304 641.449 102.749 637.34 103.912C634.748 106.37 633.452 109.199 633.452 112.399V115.567C634.717 122.407 636.866 125.587 639.9 125.106L640.848 124.956C642.618 124.676 645.273 122.559 648.813 118.607L649.382 118.516C650.646 118.316 651.657 119.052 652.416 120.724C651.531 123.616 648.686 126.563 643.882 129.564C642.997 130.088 641.891 130.455 640.564 130.665C634.053 131.696 629.818 127.183 627.858 117.125V115.013C627.858 107.525 630.892 101.925 636.961 98.2118ZM665.731 91.735C668.26 91.3985 672.527 95.2027 678.532 103.148L678.721 104.75C678.721 106.542 674.391 108.603 665.731 110.935L665.447 111.268V111.652C666.774 117.202 668.165 119.862 669.619 119.631L670.757 119.451C672.779 119.131 675.845 116.437 679.954 111.37L680.523 111.28C681.787 111.08 682.767 111.853 683.462 113.599C683.462 115.135 680.807 118.211 675.498 122.828C674.107 123.88 672.432 124.754 670.472 125.448C665.352 126.259 661.78 121.961 659.758 112.553C656.85 112.566 655.396 111.58 655.396 109.596C655.396 108.188 656.471 107.09 658.62 106.301V106.685L659.568 106.151V103.751C659.568 96.3911 661.622 92.3857 665.731 91.735ZM666.3 98.5569L665.447 98.692L665.068 102.304V105.28L665.447 105.22C668.987 104.531 670.757 103.867 670.757 103.227C669.113 100.991 667.628 99.4346 666.3 98.5569ZM706.164 80.915C707.871 80.6447 709.041 83.3714 709.673 89.0953C709.041 90.7954 707.998 91.7606 706.544 91.9909C705.532 91.9591 704.521 90.9353 703.51 88.9195L701.803 88.6138C698.832 89.0843 696.145 91.4938 693.743 95.8423V96.7063C693.743 97.6663 698.2 98.5605 707.113 99.3888C710.842 101.038 712.707 103.463 712.707 106.663C712.707 111.911 708.535 117.052 700.191 122.085L696.683 123.217C691.373 123.482 688.718 121.214 688.718 116.414V116.126C688.718 114.59 689.698 113.539 691.657 112.973C693.174 112.732 694.186 114.172 694.692 117.292L695.45 117.748L697.062 117.493C700.665 116.922 704.015 113.895 707.113 108.413V107.165C707.113 105.245 702.972 104.109 694.692 103.756C690.33 102.655 688.149 100.504 688.149 97.3043C688.149 93.1443 691.594 88.6947 698.484 83.9554C701.518 83.0908 704.078 82.0774 706.164 80.915ZM754.957 83.267C757.17 82.9165 758.687 87.6043 759.509 97.3301C760.583 101.704 761.373 103.851 761.879 103.771L762.448 103.681C764.028 99.3983 764.818 95.2731 764.818 91.3051L764.249 84.7712C764.945 82.9331 765.925 81.9139 767.189 81.7137C769.528 81.3432 770.697 85.35 770.697 93.734C772.088 102.218 772.783 110.204 772.783 117.692V122.204C772.783 135.964 768.927 145.854 761.215 151.876L759.129 152.59C755.526 153.161 752.176 150.299 749.079 144.006L748.225 138.381V138.093C748.225 133.869 749.395 131.572 751.733 131.202L754.104 132.362L753.819 138.455C753.819 141.399 755.305 144.14 758.276 146.677L759.509 146.482C762.985 145.931 765.545 138.806 767.189 125.106L767.378 119.508C767.315 113.054 767.062 108.966 766.62 107.244C764.091 109.884 762.1 111.32 760.646 111.55C757.423 112.061 754.546 103.78 752.018 86.7085L751.733 86.5616C751.733 85.0896 752.808 83.9914 754.957 83.267ZM792.187 69.9783C796.865 69.2374 800.405 72.1967 802.807 78.8563L803.186 80.8122C803.186 87.6602 800.026 95.1688 793.705 103.338C791.176 106.106 788.616 107.696 786.024 108.106C782.232 108.707 779.545 106.925 777.965 102.759C777.396 100.801 777.111 99.0541 777.111 97.5181V96.3661C777.111 86.2541 780.746 77.9984 788.015 71.5991C789.28 70.7588 790.67 70.2186 792.187 69.9783ZM782.706 96.4401C782.706 100.792 783.812 102.793 786.024 102.442C790.639 101.712 794.463 95.1219 797.497 82.6733V80.8493C796.423 77.0515 794.431 75.3829 791.524 75.8434C790.386 76.0236 789.817 76.9137 789.817 78.5137C789.817 79.6017 788.553 80.666 786.024 81.7064C783.812 85.8328 782.706 90.7441 782.706 96.4401ZM811.181 74.266L812.887 73.0357C814.405 72.7954 815.511 73.5482 816.206 75.2941C815.195 80.1903 814.689 85.1344 814.689 90.1264C814.689 92.6224 815.416 95.2273 816.87 97.941L817.439 97.8509C819.272 97.5605 821.453 89.8871 823.981 74.8307C824.866 73.9225 825.719 73.4033 826.541 73.2732C828.501 72.9628 829.481 76.3276 829.481 83.3676C830.302 90.9815 831.219 94.7083 832.23 94.5481L833.653 93.7468C835.486 94.1605 836.402 95.0073 836.402 96.2873C835.265 98.8995 833.684 100.366 831.661 100.686C829.386 101.047 827.205 99.0881 825.119 94.8104C822.59 100.587 820.03 103.68 817.439 104.091C813.583 104.702 810.896 101.063 809.379 93.1754L809.095 90.1484V89.1884C809.095 84.0684 809.79 79.0943 811.181 74.266ZM850.924 59.0434C854.906 58.4127 857.276 60.8532 858.035 66.3651V67.2291C858.035 73.4371 854.874 79.6337 848.553 85.8188C852.219 88.8862 858.635 89.694 867.801 88.2422C869.192 88.47 869.887 89.3519 869.887 90.8879C869.887 92.6159 868.781 93.6551 866.569 94.0055C860.374 94.9866 853.863 94.4178 847.036 92.2991V95.0831C847.036 101.675 845.645 105.191 842.864 105.632C840.904 105.942 839.925 102.289 839.925 94.6735V87.1855L839.64 84.5425L840.304 81.3654L839.64 72.2545V71.8705C839.64 70.1425 840.525 68.8183 842.295 67.898C844.76 62.5155 847.637 59.564 850.924 59.0434ZM846.183 80.8183C848.016 80.5279 850.07 76.8746 852.346 69.8581V65.7301L851.208 64.6623L850.355 64.7975C847.573 67.158 846.183 72.4983 846.183 80.8183ZM914.185 33.9518C915.955 34.3114 916.84 35.1633 916.84 36.5073L917.788 72.9331V84.7411C917.788 86.9171 916.872 88.1503 915.038 88.4406L913.806 88.6358C912.668 88.0481 912.099 87.2422 912.099 86.2182V75.0822L911.246 37.2013C911.246 35.6013 912.225 34.5181 914.185 33.9518ZM925.752 34.9997C928.154 35.1313 929.355 36.0291 929.355 37.6931C928.723 39.5852 927.712 40.6414 926.321 40.8616C923.982 40.7841 922.813 39.7853 922.813 37.8653C923.445 36.1652 924.425 35.21 925.752 34.9997ZM929.355 47.8691C930.367 47.7089 931.22 48.5017 931.915 50.2476L931.062 57.1987V61.7107C931.062 66.9587 931.947 73.6986 933.717 81.9302C933.085 83.2464 932.01 84.0246 930.493 84.2648C927.901 84.6753 926.195 77.2656 925.373 62.0358V58.6758C925.373 51.8918 926.7 48.2895 929.355 47.8691ZM953.388 37.4387C956.359 36.9681 958.413 39.8427 959.551 46.0625V46.4465C959.551 47.9185 958.571 48.9377 956.612 49.504C955.031 49.7543 953.957 47.9405 953.388 44.0627L953.009 43.8347L951.871 44.0149C950.48 46.2832 949.785 49.0813 949.785 52.4093L950.069 57.1643C952.598 56.7638 955.347 55.6563 958.318 53.8417C959.519 53.6515 960.626 54.3403 961.637 55.9081C961.637 58.5321 958.097 60.8208 951.017 62.7741L953.388 78.0467C953.388 79.3907 952.282 80.4299 950.069 81.1643C948.11 81.4746 947.13 78.5578 947.13 72.4138L945.328 64.5392L939.165 66.4753C937.838 66.6856 937.048 65.8187 936.795 63.8748C936.795 61.9548 939.355 60.3333 944.475 59.0103L944.096 53.1184C945.107 43.4862 948.204 38.2596 953.388 37.4387ZM972.686 43.1181C975.215 42.7816 979.482 46.5858 985.487 54.5307L985.676 56.1327C985.676 57.9247 981.346 59.9865 972.686 62.3181L972.402 62.6511V63.0351C973.729 68.5849 975.12 71.2446 976.574 71.0144L977.712 70.8341C979.734 70.5138 982.8 67.8202 986.909 62.7534L987.478 62.6633C988.742 62.4631 989.722 63.2359 990.417 64.9818C990.417 66.5178 987.762 69.5943 982.453 74.2113C981.062 75.2635 979.387 76.1368 977.427 76.8312C972.307 77.6422 968.736 73.3438 966.713 63.9362C963.805 63.9487 962.351 62.963 962.351 60.979C962.351 59.571 963.426 58.4728 965.575 57.6844V58.0684L966.523 57.5342V55.1342C966.523 47.7742 968.577 43.7688 972.686 43.1181ZM973.255 49.94L972.402 50.0751L972.023 53.6872V56.6632L972.402 56.6031C975.942 55.9145 977.712 55.2501 977.712 54.6101C976.068 52.3744 974.583 50.8177 973.255 49.94ZM1013.12 32.2981C1014.83 32.0278 1016 34.7545 1016.63 40.4784C1016 42.1785 1014.95 43.1437 1013.5 43.374C1012.49 43.3422 1011.48 42.3184 1010.46 40.3026L1008.76 39.9969C1005.79 40.4675 1003.1 42.877 1000.7 47.2254V48.0894C1000.7 49.0494 1005.15 49.9436 1014.07 50.7719C1017.8 52.4212 1019.66 54.8459 1019.66 58.0459C1019.66 63.2939 1015.49 68.4346 1007.15 73.4682L1003.64 74.5999C998.328 74.8648 995.673 72.5973 995.673 67.7973V67.5093C995.673 65.9733 996.653 64.9222 998.612 64.3558C1000.13 64.1155 1001.14 65.5553 1001.65 68.6752L1002.41 69.1311L1004.02 68.8758C1007.62 68.3051 1010.97 65.2785 1014.07 59.7959V58.5479C1014.07 56.6279 1009.93 55.4917 1001.65 55.1392C997.285 54.038 995.104 51.8874 995.104 48.6874C995.104 44.5274 998.549 40.0778 1005.44 35.3385C1008.47 34.4739 1011.03 33.4605 1013.12 32.2981ZM1034.32 9.54751C1036.09 9.65118 1036.98 10.407 1036.98 11.815L1036.41 16.1291V17.3771C1036.41 20.1931 1036.73 23.1191 1037.36 26.1549L1037.55 26.1249C1044.88 22.7235 1049.43 20.8827 1051.2 20.6024C1053.04 20.824 1053.95 21.6068 1053.95 22.9508C1053.95 25.1268 1051.77 26.5603 1047.41 27.2511L1037.55 32.3649C1037.55 41.0049 1038.47 52.6037 1040.3 67.1614C1039.92 68.9495 1039 69.9586 1037.55 70.1889L1037.36 70.2189C1035.15 70.5694 1034.04 67.8646 1034.04 62.1046C1033.22 57.9467 1032.52 48.7448 1031.95 34.499L1030.25 34.7693C1024.31 35.3264 1021.33 34.3889 1021.33 31.9569C1021.33 31.2529 1022 30.2838 1023.33 29.0496L1024.27 28.8994L1028.64 29.3606L1031.67 28.88L1030.82 17.0152C1030.82 12.4072 1031.99 9.91794 1034.32 9.54751ZM1059.88 34.9727C1062.09 34.6223 1063.6 39.31 1064.43 49.0359C1065.5 53.4097 1066.29 55.5565 1066.8 55.4764L1067.37 55.3863C1068.95 51.104 1069.74 46.9789 1069.74 43.0109L1069.17 36.477C1069.86 34.6388 1070.84 33.6197 1072.11 33.4194C1074.45 33.049 1075.62 37.0558 1075.62 45.4398C1077.01 53.9235 1077.7 61.9094 1077.7 69.3974V73.9094C1077.7 87.6694 1073.85 97.5601 1066.13 103.582L1064.05 104.296C1060.44 104.867 1057.09 102.005 1054 95.7118L1053.14 90.087V89.799C1053.14 85.575 1054.31 83.2777 1056.65 82.9073L1059.02 84.0679L1058.74 90.1609C1058.74 93.1049 1060.22 95.8456 1063.19 98.3831L1064.43 98.1879C1067.9 97.6372 1070.46 90.5117 1072.11 76.8114L1072.3 71.2134C1072.23 64.7594 1071.98 60.6714 1071.54 58.9495C1069.01 61.59 1067.02 63.0254 1065.56 63.2556C1062.34 63.7662 1059.46 55.4858 1056.94 38.4143L1056.65 38.2673C1056.65 36.7953 1057.73 35.6971 1059.88 34.9727ZM1087.34 6.52685C1089.11 6.88652 1089.99 7.73836 1089.99 9.08235L1090.94 45.5082V57.3162C1090.94 59.4922 1090.03 60.7254 1088.19 61.0157L1086.96 61.2109C1085.82 60.6231 1085.25 59.8172 1085.25 58.7932V47.6572L1084.4 9.7764C1084.4 8.1764 1085.38 7.09322 1087.34 6.52685Z" fill="#4CB6E9" fill-opacity="0.2"/>
</svg>
